<?xml version="1.0" encoding="UTF-8"?>
<svg width="975px" height="417px" viewBox="0 0 975 417" version="1.1" xmlns="http://www.w3.org/2000/svg" xmlns:xlink="http://www.w3.org/1999/xlink">
    <title>Group 10</title>
    <g id="Page-1" stroke="none" stroke-width="1" fill="none" fill-rule="evenodd">
        <g id="Group-10">
            <rect id="Rectangle-Copy-4" fill="#8993FE" x="0" y="5" width="175" height="175" rx="30"></rect>
            <path d="M54.4678228,103 L56.2573418,97.9154937 L65.2049367,97.9154937 L66.9944557,103 L69.6361266,103 L62.1655949,82.6903797 L59.3250886,82.6903797 L51.8261519,103 L54.4678228,103 Z M64.3811899,95.6430886 L57.1094937,95.6430886 L60.7169367,85.048 L60.7737468,85.048 L64.3811899,95.6430886 Z M77.6463544,108.027696 C81.6230633,108.027696 84.0658987,106.067747 84.0658987,102.204658 L84.0658987,88.5134177 L81.7934937,88.5134177 L81.7934937,90.3029367 L81.7366835,90.3029367 C80.8845316,89.1951392 79.5210886,88.1157468 77.1350633,88.1157468 C73.5560253,88.1157468 70.6587089,90.416557 70.6587089,95.1886076 C70.6587089,99.9606582 73.5560253,102.261468 77.1350633,102.261468 C79.5210886,102.261468 80.8845316,101.238886 81.7366835,99.9890633 L81.7934937,99.9890633 L81.7934937,102.176253 C81.7934937,104.874734 80.2312152,106.039342 77.5327342,106.039342 C74.8342532,106.039342 73.6412405,104.931544 73.3571899,103.454481 L71.0847848,103.454481 C71.3120253,105.925722 73.6696456,108.027696 77.6463544,108.027696 Z M77.4191139,100.273114 C74.4365823,100.273114 72.9311139,98.0291139 72.9311139,95.1886076 C72.9311139,92.3481013 74.4365823,90.1041013 77.4191139,90.1041013 C80.1175949,90.1041013 81.7934937,91.78 81.7934937,95.1886076 C81.7934937,98.5972152 80.1175949,100.273114 77.4191139,100.273114 Z M93.4395696,103.397671 C97.0470127,103.397671 99.1205823,101.238886 99.8591139,98.5404051 L97.5867089,98.5404051 C97.3310633,99.5345823 96.2516709,101.409316 93.3543544,101.409316 C90.2013924,101.409316 88.6391139,98.966481 88.6391139,96.3532152 L100.086354,96.3532152 C100.086354,91.2118987 97.8707595,88.1157468 93.3259494,88.1157468 C89.0935949,88.1157468 86.3667089,90.9278481 86.3667089,95.7567089 C86.3667089,100.301519 89.0367848,103.397671 93.4395696,103.397671 Z M97.8139494,94.3648608 L88.6391139,94.3648608 C88.6391139,92.0356456 90.5990633,90.1041013 93.3259494,90.1041013 C96.0528354,90.1041013 97.8139494,92.0356456 97.8139494,94.3648608 Z M104.602759,103 L104.602759,93.9671899 C104.602759,91.7231899 106.307063,90.1041013 108.863519,90.1041013 C111.135924,90.1041013 112.016481,91.5811646 112.016481,93.4558987 L112.016481,103 L114.288886,103 L114.288886,92.8877975 C114.288886,89.5644051 112.073291,88.1157468 109.43162,88.1157468 C106.96038,88.1157468 105.426506,89.2235443 104.65957,90.2461266 L104.602759,90.2461266 L104.602759,88.5134177 L102.330354,88.5134177 L102.330354,103 L104.602759,103 Z M121.929848,103.17043 C122.526354,103.17043 123.122861,103.11362 123.634152,103 L123.634152,101.011646 C121.702608,101.153671 120.793646,100.86962 120.793646,99.2221266 L120.793646,90.5017722 L123.634152,90.5017722 L123.634152,88.5134177 L120.793646,88.5134177 L120.793646,83.684557 L118.521241,83.684557 L118.521241,88.5134177 L116.390861,88.5134177 L116.390861,90.5017722 L118.521241,90.5017722 L118.521241,99.4493671 C118.521241,102.403494 119.998304,103.17043 121.929848,103.17043 Z" id="Agent" fill="#FFFFFF" fill-rule="nonzero"></path>
            <rect id="Rectangle-Copy-6" fill="#3D39FF" x="402" y="0" width="175" height="175" rx="30"></rect>
            <rect id="Rectangle-Copy-7" fill="#7F7B8C" x="385" y="351" width="209" height="64" rx="32"></rect>
            <path d="M453.291924,394 L453.291924,391.727595 L441.162962,391.727595 L441.162962,384.626329 L451.58762,384.626329 L451.58762,382.353924 L441.162962,382.353924 L441.162962,375.962785 L452.951063,375.962785 L452.951063,373.69038 L438.606506,373.69038 L438.606506,394 L453.291924,394 Z M457.240228,394 L461.472582,388.091747 L461.529392,388.091747 L465.790152,394 L468.488633,394 L462.86443,386.586278 L467.977342,379.513418 L465.278861,379.513418 L461.529392,385.052405 L461.472582,385.052405 L457.723114,379.513418 L455.024633,379.513418 L460.137544,386.586278 L454.541747,394 L457.240228,394 Z M472.493747,398.885671 L472.493747,392.125266 L472.550557,392.125266 C473.402709,393.375089 474.766152,394.397671 477.152177,394.397671 C480.731215,394.397671 483.628532,391.528759 483.628532,386.756709 C483.628532,381.984658 480.731215,379.115747 477.152177,379.115747 C474.766152,379.115747 473.402709,380.195139 472.550557,381.302937 L472.493747,381.302937 L472.493747,379.513418 L470.221342,379.513418 L470.221342,398.885671 L472.493747,398.885671 Z M476.868127,392.409316 C474.169646,392.409316 472.493747,390.165316 472.493747,386.756709 C472.493747,383.348101 474.169646,381.104101 476.868127,381.104101 C479.850658,381.104101 481.356127,383.916203 481.356127,386.756709 C481.356127,389.597215 479.850658,392.409316 476.868127,392.409316 Z M488.372177,394 L488.372177,373.69038 L486.099772,373.69038 L486.099772,394 L488.372177,394 Z M497.859468,394.397671 C502.262253,394.397671 504.932329,391.273114 504.932329,386.756709 C504.932329,382.240304 502.262253,379.115747 497.859468,379.115747 C493.428278,379.115747 490.758203,382.240304 490.758203,386.756709 C490.758203,391.273114 493.428278,394.397671 497.859468,394.397671 Z M497.859468,392.409316 C494.592886,392.409316 493.030608,389.852861 493.030608,386.756709 C493.030608,383.660557 494.592886,381.104101 497.859468,381.104101 C501.097646,381.104101 502.659924,383.660557 502.659924,386.756709 C502.659924,389.852861 501.097646,392.409316 497.859468,392.409316 Z M509.505544,394 L509.505544,386.273823 C509.505544,383.177671 511.692734,380.962076 514.845696,381.473367 L514.902506,381.473367 L514.902506,379.200962 C514.504835,379.144152 514.107165,379.115747 513.567468,379.115747 C511.493899,379.115747 510.329291,380.47919 509.562354,382.382329 L509.505544,382.382329 L509.505544,379.513418 L507.233139,379.513418 L507.233139,394 L509.505544,394 Z M523.22519,394.397671 C526.832633,394.397671 528.906203,392.238886 529.644734,389.540405 L527.372329,389.540405 C527.116684,390.534582 526.037291,392.409316 523.139975,392.409316 C519.987013,392.409316 518.424734,389.966481 518.424734,387.353215 L529.871975,387.353215 C529.871975,382.211899 527.65638,379.115747 523.11157,379.115747 C518.879215,379.115747 516.152329,381.927848 516.152329,386.756709 C516.152329,391.301519 518.822405,394.397671 523.22519,394.397671 Z M527.59957,385.364861 L518.424734,385.364861 C518.424734,383.035646 520.384684,381.104101 523.11157,381.104101 C525.838456,381.104101 527.59957,383.035646 527.59957,385.364861 Z M534.38838,394 L534.38838,386.273823 C534.38838,383.177671 536.57557,380.962076 539.728532,381.473367 L539.785342,381.473367 L539.785342,379.200962 C539.387671,379.144152 538.99,379.115747 538.450304,379.115747 C536.376734,379.115747 535.212127,380.47919 534.44519,382.382329 L534.38838,382.382329 L534.38838,379.513418 L532.115975,379.513418 L532.115975,394 L534.38838,394 Z" id="Explorer" fill="#FFFFFF" fill-rule="nonzero"></path>
            <rect id="Rectangle-Copy-5" fill="#FF4572" x="800" y="5" width="175" height="175" rx="30"></rect>
            <path d="M875.086987,86 L875.086987,83.7275949 L864.435089,83.7275949 L864.435089,65.6903797 L861.878633,65.6903797 L861.878633,86 L875.086987,86 Z M890.823392,86 L890.823392,83.7275949 L880.171494,83.7275949 L880.171494,65.6903797 L877.615038,65.6903797 L877.615038,86 L890.823392,86 Z M895.907899,86 L895.907899,69.2978228 L895.964709,69.2978228 L902.100203,86 L904.372608,86 L910.508101,69.2978228 L910.564911,69.2978228 L910.564911,86 L913.121367,86 L913.121367,65.6903797 L909.627544,65.6903797 L903.26481,82.5629873 L903.208,82.5629873 L896.845266,65.6903797 L893.351443,65.6903797 L893.351443,86 L895.907899,86 Z M840.873089,120.964869 L840.873089,112.471755 L846.383671,112.471755 C850.104734,112.471755 852.973646,110.824261 852.973646,106.563502 C852.973646,102.302742 850.104734,100.655249 846.383671,100.655249 L838.316633,100.655249 L838.316633,120.964869 L840.873089,120.964869 Z M846.667722,110.19935 L840.873089,110.19935 L840.873089,102.927654 L846.667722,102.927654 C849.195772,102.927654 850.41719,104.092261 850.41719,106.563502 C850.41719,109.034742 849.195772,110.19935 846.667722,110.19935 Z M857.37643,120.964869 L857.37643,113.238692 C857.37643,110.14254 859.56362,107.926945 862.716582,108.438236 L862.773392,108.438236 L862.773392,106.165831 C862.375722,106.109021 861.978051,106.080616 861.438354,106.080616 C859.364785,106.080616 858.200177,107.444059 857.433241,109.347198 L857.37643,109.347198 L857.37643,106.478287 L855.104025,106.478287 L855.104025,120.964869 L857.37643,120.964869 Z M871.124481,121.36254 C875.527266,121.36254 878.197342,118.237983 878.197342,113.721578 C878.197342,109.205173 875.527266,106.080616 871.124481,106.080616 C866.693291,106.080616 864.023215,109.205173 864.023215,113.721578 C864.023215,118.237983 866.693291,121.36254 871.124481,121.36254 Z M871.124481,119.374185 C867.857899,119.374185 866.29562,116.81773 866.29562,113.721578 C866.29562,110.625426 867.857899,108.06897 871.124481,108.06897 C874.362658,108.06897 875.924937,110.625426 875.924937,113.721578 C875.924937,116.81773 874.362658,119.374185 871.124481,119.374185 Z M886.775671,120.964869 L891.973797,106.478287 L889.502557,106.478287 L885.497443,118.692464 L885.469038,118.692464 L881.463924,106.478287 L878.992684,106.478287 L884.19081,120.964869 L886.775671,120.964869 Z M895.013139,103.666185 C895.666456,103.666185 896.433392,103.183299 896.433392,102.302742 C896.433392,101.422185 895.666456,100.939299 895.013139,100.939299 C894.388228,100.939299 893.592886,101.422185 893.592886,102.302742 C893.592886,103.183299 894.388228,103.666185 895.013139,103.666185 Z M896.149342,120.964869 L896.149342,106.478287 L893.876937,106.478287 L893.876937,120.964869 L896.149342,120.964869 Z M905.267367,121.36254 C907.596582,121.36254 908.960025,120.283147 909.812177,119.17535 L909.868987,119.17535 L909.868987,120.964869 L912.141392,120.964869 L912.141392,100.655249 L909.868987,100.655249 L909.868987,108.353021 L909.812177,108.353021 C908.960025,107.103198 907.596582,106.080616 905.267367,106.080616 C901.631519,106.080616 898.734203,108.949527 898.734203,113.721578 C898.734203,118.493628 901.631519,121.36254 905.267367,121.36254 Z M905.494608,119.374185 C902.512076,119.374185 901.006608,116.562084 901.006608,113.721578 C901.006608,110.881071 902.512076,108.06897 905.494608,108.06897 C908.193089,108.06897 909.868987,110.31297 909.868987,113.721578 C909.868987,117.130185 908.193089,119.374185 905.494608,119.374185 Z M921.515063,121.36254 C925.122506,121.36254 927.196076,119.203755 927.934608,116.505274 L925.662203,116.505274 C925.406557,117.499451 924.327165,119.374185 921.429848,119.374185 C918.276886,119.374185 916.714608,116.93135 916.714608,114.318084 L928.161848,114.318084 C928.161848,109.176768 925.946253,106.080616 921.401443,106.080616 C917.169089,106.080616 914.442203,108.892717 914.442203,113.721578 C914.442203,118.266388 917.112278,121.36254 921.515063,121.36254 Z M925.889443,112.32973 L916.714608,112.32973 C916.714608,110.000515 918.674557,108.06897 921.401443,108.06897 C924.128329,108.06897 925.889443,110.000515 925.889443,112.32973 Z M932.678253,120.964869 L932.678253,113.238692 C932.678253,110.14254 934.865443,107.926945 938.018405,108.438236 L938.075215,108.438236 L938.075215,106.165831 C937.677544,106.109021 937.279873,106.080616 936.740177,106.080616 C934.666608,106.080616 933.502,107.444059 932.735063,109.347198 L932.678253,109.347198 L932.678253,106.478287 L930.405848,106.478287 L930.405848,120.964869 L932.678253,120.964869 Z" id="LLMProvider" fill="#FFFFFF" fill-rule="nonzero"></path>
            <circle id="Oval" fill="#BDB8FF" cx="320.5" cy="56.5" r="30.5"></circle>
            <path d="M324.992138,45.4605138 C325.546865,44.8976636 326.417534,44.8507594 327.024918,45.3198013 L327.183605,45.4605138 L332.838259,51.1979713 C335.624499,54.0249004 335.717373,58.5468947 333.116906,61.501991 L332.838284,61.8019674 L327.183609,67.5394827 C326.578454,68.153503 325.5973,68.1535062 324.992142,67.5394897 C324.437413,66.9766412 324.391183,66.0932233 324.853453,65.4769436 L324.992135,65.3159322 L330.643697,59.5815844 C332.243639,57.9489406 332.316364,55.3670434 330.864582,53.6593612 L330.646814,53.4215505 L324.992138,47.6840713 C324.386981,47.0700529 324.386981,46.0745323 324.992138,45.4605138 Z" id="Path" fill="#2F2E6B" fill-rule="nonzero"></path>
            <path d="M326.105291,54.9236586 C326.961112,54.9236586 327.654892,55.6275979 327.654892,56.4959511 C327.654892,57.2975079 327.063742,57.9589725 326.29967,58.0559933 L326.105291,58.0682437 L306.549601,58.0682437 C305.69378,58.0682437 305,57.3643043 305,56.4959511 C305,55.6943943 305.59115,55.0329298 306.355223,54.935909 L306.549601,54.9236586 L326.105291,54.9236586 Z" id="Path" fill="#2F2E6B" fill-rule="nonzero"></path>
            <circle id="Oval" fill="#BDB8FF" cx="259.5" cy="56.5" r="30.5"></circle>
            <path d="M263.992138,45.4605138 C264.546865,44.8976636 265.417534,44.8507594 266.024918,45.3198013 L266.183605,45.4605138 L271.838259,51.1979713 C274.624499,54.0249004 274.717373,58.5468947 272.116906,61.501991 L271.838284,61.8019674 L266.183609,67.5394827 C265.578454,68.153503 264.5973,68.1535062 263.992142,67.5394897 C263.437413,66.9766412 263.391183,66.0932233 263.853453,65.4769436 L263.992135,65.3159322 L269.643697,59.5815844 C271.243639,57.9489406 271.316364,55.3670434 269.864582,53.6593612 L269.646814,53.4215505 L263.992138,47.6840713 C263.386981,47.0700529 263.386981,46.0745323 263.992138,45.4605138 Z" id="Path" fill="#2F2E6B" fill-rule="nonzero"></path>
            <path d="M265.105291,54.9236586 C265.961112,54.9236586 266.654892,55.6275979 266.654892,56.4959511 C266.654892,57.2975079 266.063742,57.9589725 265.29967,58.0559933 L265.105291,58.0682437 L245.549601,58.0682437 C244.69378,58.0682437 244,57.3643043 244,56.4959511 C244,55.6943943 244.59115,55.0329298 245.355223,54.935909 L245.549601,54.9236586 L265.105291,54.9236586 Z" id="Path" fill="#2F2E6B" fill-rule="nonzero"></path>
            <circle id="Oval" fill="#BDB8FF" transform="translate(320.500000, 128.500000) rotate(180.000000) translate(-320.500000, -128.500000) " cx="320.5" cy="128.5" r="30.5"></circle>
            <path d="M306.453868,117.460514 C307.008595,116.897664 307.879263,116.850759 308.486647,117.319801 L308.645335,117.460514 L314.299989,123.197971 C317.086228,126.0249 317.179103,130.546895 314.578635,133.501991 L314.300014,133.801967 L308.645338,139.539483 C308.040183,140.153503 307.05903,140.153506 306.453871,139.53949 C305.899142,138.976641 305.852912,138.093223 306.315183,137.476944 L306.453864,137.315932 L312.105427,131.581584 C313.705369,129.948941 313.778093,127.367043 312.326311,125.659361 L312.108543,125.421551 L306.453868,119.684071 C305.848711,119.070053 305.848711,118.074532 306.453868,117.460514 Z" id="Path" fill="#2F2E6B" fill-rule="nonzero" transform="translate(311.230865, 128.500000) rotate(180.000000) translate(-311.230865, -128.500000) "></path>
            <path d="M334.450399,126.931756 C335.30622,126.931756 336,127.635696 336,128.504049 C336,129.305606 335.40885,129.96707 334.644777,130.064091 L334.450399,130.076341 L314.894709,130.076341 C314.038888,130.076341 313.345108,129.372402 313.345108,128.504049 C313.345108,127.702492 313.936258,127.041028 314.70033,126.944007 L314.894709,126.931756 L334.450399,126.931756 Z" id="Path" fill="#2F2E6B" fill-rule="nonzero" transform="translate(324.672554, 128.504049) rotate(180.000000) translate(-324.672554, -128.504049) "></path>
            <circle id="Oval" fill="#BDB8FF" transform="translate(259.500000, 128.500000) rotate(180.000000) translate(-259.500000, -128.500000) " cx="259.5" cy="128.5" r="30.5"></circle>
            <path d="M245.453868,117.460514 C246.008595,116.897664 246.879263,116.850759 247.486647,117.319801 L247.645335,117.460514 L253.299989,123.197971 C256.086228,126.0249 256.179103,130.546895 253.578635,133.501991 L253.300014,133.801967 L247.645338,139.539483 C247.040183,140.153503 246.05903,140.153506 245.453871,139.53949 C244.899142,138.976641 244.852912,138.093223 245.315183,137.476944 L245.453864,137.315932 L251.105427,131.581584 C252.705369,129.948941 252.778093,127.367043 251.326311,125.659361 L251.108543,125.421551 L245.453868,119.684071 C244.848711,119.070053 244.848711,118.074532 245.453868,117.460514 Z" id="Path" fill="#2F2E6B" fill-rule="nonzero" transform="translate(250.230865, 128.500000) rotate(180.000000) translate(-250.230865, -128.500000) "></path>
            <path d="M273.450399,126.931756 C274.30622,126.931756 275,127.635696 275,128.504049 C275,129.305606 274.40885,129.96707 273.644777,130.064091 L273.450399,130.076341 L253.894709,130.076341 C253.038888,130.076341 252.345108,129.372402 252.345108,128.504049 C252.345108,127.702492 252.936258,127.041028 253.70033,126.944007 L253.894709,126.931756 L273.450399,126.931756 Z" id="Path" fill="#2F2E6B" fill-rule="nonzero" transform="translate(263.672554, 128.504049) rotate(180.000000) translate(-263.672554, -128.504049) "></path>
            <circle id="Oval" fill="#BDB8FF" cx="719.5" cy="56.5" r="30.5"></circle>
            <path d="M723.992138,45.4605138 C724.546865,44.8976636 725.417534,44.8507594 726.024918,45.3198013 L726.183605,45.4605138 L731.838259,51.1979713 C734.624499,54.0249004 734.717373,58.5468947 732.116906,61.501991 L731.838284,61.8019674 L726.183609,67.5394827 C725.578454,68.153503 724.5973,68.1535062 723.992142,67.5394897 C723.437413,66.9766412 723.391183,66.0932233 723.853453,65.4769436 L723.992135,65.3159322 L729.643697,59.5815844 C731.243639,57.9489406 731.316364,55.3670434 729.864582,53.6593612 L729.646814,53.4215505 L723.992138,47.6840713 C723.386981,47.0700529 723.386981,46.0745323 723.992138,45.4605138 Z" id="Path" fill="#2F2E6B" fill-rule="nonzero"></path>
            <path d="M725.105291,54.9236586 C725.961112,54.9236586 726.654892,55.6275979 726.654892,56.4959511 C726.654892,57.2975079 726.063742,57.9589725 725.29967,58.0559933 L725.105291,58.0682437 L705.549601,58.0682437 C704.69378,58.0682437 704,57.3643043 704,56.4959511 C704,55.6943943 704.59115,55.0329298 705.355223,54.935909 L705.549601,54.9236586 L725.105291,54.9236586 Z" id="Path" fill="#2F2E6B" fill-rule="nonzero"></path>
            <circle id="Oval" fill="#BDB8FF" cx="658.5" cy="56.5" r="30.5"></circle>
            <path d="M662.992138,45.4605138 C663.546865,44.8976636 664.417534,44.8507594 665.024918,45.3198013 L665.183605,45.4605138 L670.838259,51.1979713 C673.624499,54.0249004 673.717373,58.5468947 671.116906,61.501991 L670.838284,61.8019674 L665.183609,67.5394827 C664.578454,68.153503 663.5973,68.1535062 662.992142,67.5394897 C662.437413,66.9766412 662.391183,66.0932233 662.853453,65.4769436 L662.992135,65.3159322 L668.643697,59.5815844 C670.243639,57.9489406 670.316364,55.3670434 668.864582,53.6593612 L668.646814,53.4215505 L662.992138,47.6840713 C662.386981,47.0700529 662.386981,46.0745323 662.992138,45.4605138 Z" id="Path" fill="#2F2E6B" fill-rule="nonzero"></path>
            <path d="M664.105291,54.9236586 C664.961112,54.9236586 665.654892,55.6275979 665.654892,56.4959511 C665.654892,57.2975079 665.063742,57.9589725 664.29967,58.0559933 L664.105291,58.0682437 L644.549601,58.0682437 C643.69378,58.0682437 643,57.3643043 643,56.4959511 C643,55.6943943 643.59115,55.0329298 644.355223,54.935909 L644.549601,54.9236586 L664.105291,54.9236586 Z" id="Path" fill="#2F2E6B" fill-rule="nonzero"></path>
            <circle id="Oval" fill="#BDB8FF" transform="translate(719.500000, 128.500000) rotate(180.000000) translate(-719.500000, -128.500000) " cx="719.5" cy="128.5" r="30.5"></circle>
            <path d="M705.453868,117.460514 C706.008595,116.897664 706.879263,116.850759 707.486647,117.319801 L707.645335,117.460514 L713.299989,123.197971 C716.086228,126.0249 716.179103,130.546895 713.578635,133.501991 L713.300014,133.801967 L707.645338,139.539483 C707.040183,140.153503 706.05903,140.153506 705.453871,139.53949 C704.899142,138.976641 704.852912,138.093223 705.315183,137.476944 L705.453864,137.315932 L711.105427,131.581584 C712.705369,129.948941 712.778093,127.367043 711.326311,125.659361 L711.108543,125.421551 L705.453868,119.684071 C704.848711,119.070053 704.848711,118.074532 705.453868,117.460514 Z" id="Path" fill="#2F2E6B" fill-rule="nonzero" transform="translate(710.230865, 128.500000) rotate(180.000000) translate(-710.230865, -128.500000) "></path>
            <path d="M733.450399,126.931756 C734.30622,126.931756 735,127.635696 735,128.504049 C735,129.305606 734.40885,129.96707 733.644777,130.064091 L733.450399,130.076341 L713.894709,130.076341 C713.038888,130.076341 712.345108,129.372402 712.345108,128.504049 C712.345108,127.702492 712.936258,127.041028 713.70033,126.944007 L713.894709,126.931756 L733.450399,126.931756 Z" id="Path" fill="#2F2E6B" fill-rule="nonzero" transform="translate(723.672554, 128.504049) rotate(180.000000) translate(-723.672554, -128.504049) "></path>
            <circle id="Oval" fill="#BDB8FF" transform="translate(658.500000, 128.500000) rotate(180.000000) translate(-658.500000, -128.500000) " cx="658.5" cy="128.5" r="30.5"></circle>
            <path d="M644.453868,117.460514 C645.008595,116.897664 645.879263,116.850759 646.486647,117.319801 L646.645335,117.460514 L652.299989,123.197971 C655.086228,126.0249 655.179103,130.546895 652.578635,133.501991 L652.300014,133.801967 L646.645338,139.539483 C646.040183,140.153503 645.05903,140.153506 644.453871,139.53949 C643.899142,138.976641 643.852912,138.093223 644.315183,137.476944 L644.453864,137.315932 L650.105427,131.581584 C651.705369,129.948941 651.778093,127.367043 650.326311,125.659361 L650.108543,125.421551 L644.453868,119.684071 C643.848711,119.070053 643.848711,118.074532 644.453868,117.460514 Z" id="Path" fill="#2F2E6B" fill-rule="nonzero" transform="translate(649.230865, 128.500000) rotate(180.000000) translate(-649.230865, -128.500000) "></path>
            <path d="M672.450399,126.931756 C673.30622,126.931756 674,127.635696 674,128.504049 C674,129.305606 673.40885,129.96707 672.644777,130.064091 L672.450399,130.076341 L652.894709,130.076341 C652.038888,130.076341 651.345108,129.372402 651.345108,128.504049 C651.345108,127.702492 651.936258,127.041028 652.70033,126.944007 L652.894709,126.931756 L672.450399,126.931756 Z" id="Path" fill="#2F2E6B" fill-rule="nonzero" transform="translate(662.672554, 128.504049) rotate(180.000000) translate(-662.672554, -128.504049) "></path>
            <circle id="Oval" fill="#BDB8FF" transform="translate(489.000000, 234.000000) rotate(90.000000) translate(-489.000000, -234.000000) " cx="489" cy="234" r="30.5"></circle>
            <path d="M484.223003,232.229649 C484.77773,231.666799 485.648399,231.619895 486.255783,232.088936 L486.41447,232.229649 L492.069124,237.967107 C494.855364,240.794036 494.948238,245.31603 492.347771,248.271126 L492.069149,248.571103 L486.414473,254.308618 C485.809318,254.922638 484.828165,254.922641 484.223006,254.308625 C483.668277,253.745776 483.622047,252.862359 484.084318,252.246079 L484.222999,252.085067 L489.874562,246.35072 C491.474504,244.718076 491.547229,242.136179 490.095446,240.428496 L489.877679,240.190686 L484.223003,234.453207 C483.617846,233.839188 483.617846,232.843667 484.223003,232.229649 Z" id="Path" fill="#2F2E6B" fill-rule="nonzero" transform="translate(489.000000, 243.269135) rotate(90.000000) translate(-489.000000, -243.269135) "></path>
            <path d="M498.781894,228.255153 C499.637715,228.255153 500.331495,228.959093 500.331495,229.827446 C500.331495,230.629003 499.740345,231.290467 498.976272,231.387488 L498.781894,231.399739 L479.226204,231.399739 C478.370383,231.399739 477.676603,230.695799 477.676603,229.827446 C477.676603,229.025889 478.267753,228.364425 479.031825,228.267404 L479.226204,228.255153 L498.781894,228.255153 Z" id="Path" fill="#2F2E6B" fill-rule="nonzero" transform="translate(489.004049, 229.827446) rotate(90.000000) translate(-489.004049, -229.827446) "></path>
            <circle id="Oval" fill="#BDB8FF" transform="translate(489.000000, 295.000000) rotate(90.000000) translate(-489.000000, -295.000000) " cx="489" cy="295" r="30.5"></circle>
            <path d="M484.223003,293.229649 C484.77773,292.666799 485.648399,292.619895 486.255783,293.088936 L486.41447,293.229649 L492.069124,298.967107 C494.855364,301.794036 494.948238,306.31603 492.347771,309.271126 L492.069149,309.571103 L486.414473,315.308618 C485.809318,315.922638 484.828165,315.922641 484.223006,315.308625 C483.668277,314.745776 483.622047,313.862359 484.084318,313.246079 L484.222999,313.085067 L489.874562,307.35072 C491.474504,305.718076 491.547229,303.136179 490.095446,301.428496 L489.877679,301.190686 L484.223003,295.453207 C483.617846,294.839188 483.617846,293.843667 484.223003,293.229649 Z" id="Path" fill="#2F2E6B" fill-rule="nonzero" transform="translate(489.000000, 304.269135) rotate(90.000000) translate(-489.000000, -304.269135) "></path>
            <path d="M498.781894,289.255153 C499.637715,289.255153 500.331495,289.959093 500.331495,290.827446 C500.331495,291.629003 499.740345,292.290467 498.976272,292.387488 L498.781894,292.399739 L479.226204,292.399739 C478.370383,292.399739 477.676603,291.695799 477.676603,290.827446 C477.676603,290.025889 478.267753,289.364425 479.031825,289.267404 L479.226204,289.255153 L498.781894,289.255153 Z" id="Path" fill="#2F2E6B" fill-rule="nonzero" transform="translate(489.004049, 290.827446) rotate(90.000000) translate(-489.004049, -290.827446) "></path>
            <path d="M442.04643,81 L442.04643,60.6903797 L439.489975,60.6903797 L439.489975,81 L442.04643,81 Z M447.841063,81 L447.841063,71.9671899 C447.841063,69.7231899 449.545367,68.1041013 452.101823,68.1041013 C454.374228,68.1041013 455.254785,69.5811646 455.254785,71.4558987 L455.254785,81 L457.52719,81 L457.52719,70.8877975 C457.52719,67.5644051 455.311595,66.1157468 452.669924,66.1157468 C450.198684,66.1157468 448.66481,67.2235443 447.897873,68.2461266 L447.841063,68.2461266 L447.841063,66.5134177 L445.568658,66.5134177 L445.568658,81 L447.841063,81 Z M466.844051,81 L472.042177,66.5134177 L469.570937,66.5134177 L465.565823,78.7275949 L465.537418,78.7275949 L461.532304,66.5134177 L459.061063,66.5134177 L464.25919,81 L466.844051,81 Z M477.552759,81.3976709 C479.938785,81.3976709 481.557873,80.545519 482.466835,79.1820759 L482.523646,79.1820759 C482.921316,80.7727595 483.745063,81.1420253 485.108506,81.1420253 C485.534582,81.1420253 485.847038,81.1136203 486.443544,80.9147848 L486.443544,79.3241013 C484.994886,79.4945316 484.796051,78.8696203 484.796051,77.7334177 L484.796051,70.688962 C484.796051,67.1951392 482.32481,66.1157468 479.569519,66.1157468 C475.36557,66.1157468 473.632861,68.2177215 473.490835,71.0014177 L475.763241,71.0014177 C475.905266,68.899443 476.814228,68.1041013 479.569519,68.1041013 C481.898734,68.1041013 482.523646,69.0698734 482.523646,70.2060759 C482.523646,71.6547342 481.415848,71.9671899 478.973013,72.4216709 C475.223544,73.1317975 472.780709,73.9839494 472.780709,77.2789367 C472.780709,79.7217722 474.627038,81.3976709 477.552759,81.3976709 Z M477.78,79.4093165 C475.905266,79.4093165 475.053114,78.5855696 475.053114,77.1653165 C475.053114,75.4326076 476.359747,74.722481 479.171848,74.1259747 C480.705722,73.813519 482.09757,73.4158481 482.523646,72.9897722 L482.523646,75.4042025 C482.523646,78.1878987 480.478481,79.4093165 477.78,79.4093165 Z M490.420253,81 L490.420253,73.2738228 C490.420253,70.1776709 492.607443,67.9620759 495.760405,68.4733671 L495.817215,68.4733671 L495.817215,66.200962 C495.419544,66.1441519 495.021873,66.1157468 494.482177,66.1157468 C492.408608,66.1157468 491.244,67.4791899 490.477063,69.3823291 L490.420253,69.3823291 L490.420253,66.5134177 L488.147848,66.5134177 L488.147848,81 L490.420253,81 Z M499.311038,63.7013165 C499.964354,63.7013165 500.731291,63.2184304 500.731291,62.3378734 C500.731291,61.4573165 499.964354,60.9744304 499.311038,60.9744304 C498.686127,60.9744304 497.890785,61.4573165 497.890785,62.3378734 C497.890785,63.2184304 498.686127,63.7013165 499.311038,63.7013165 Z M500.447241,81 L500.447241,66.5134177 L498.174835,66.5134177 L498.174835,81 L500.447241,81 Z M507.747342,81.3976709 C510.133367,81.3976709 511.752456,80.545519 512.661418,79.1820759 L512.718228,79.1820759 C513.115899,80.7727595 513.939646,81.1420253 515.303089,81.1420253 C515.729165,81.1420253 516.04162,81.1136203 516.638127,80.9147848 L516.638127,79.3241013 C515.189468,79.4945316 514.990633,78.8696203 514.990633,77.7334177 L514.990633,70.688962 C514.990633,67.1951392 512.519392,66.1157468 509.764101,66.1157468 C505.560152,66.1157468 503.827443,68.2177215 503.685418,71.0014177 L505.957823,71.0014177 C506.099848,68.899443 507.00881,68.1041013 509.764101,68.1041013 C512.093316,68.1041013 512.718228,69.0698734 512.718228,70.2060759 C512.718228,71.6547342 511.61043,71.9671899 509.167595,72.4216709 C505.418127,73.1317975 502.975291,73.9839494 502.975291,77.2789367 C502.975291,79.7217722 504.82162,81.3976709 507.747342,81.3976709 Z M507.974582,79.4093165 C506.099848,79.4093165 505.247696,78.5855696 505.247696,77.1653165 C505.247696,75.4326076 506.554329,74.722481 509.36643,74.1259747 C510.900304,73.813519 512.292152,73.4158481 512.718228,72.9897722 L512.718228,75.4042025 C512.718228,78.1878987 510.673063,79.4093165 507.974582,79.4093165 Z M520.614835,81 L520.614835,71.9671899 C520.614835,69.7231899 522.319139,68.1041013 524.875595,68.1041013 C527.148,68.1041013 528.028557,69.5811646 528.028557,71.4558987 L528.028557,81 L530.300962,81 L530.300962,70.8877975 C530.300962,67.5644051 528.085367,66.1157468 525.443696,66.1157468 C522.972456,66.1157468 521.438582,67.2235443 520.671646,68.2461266 L520.614835,68.2461266 L520.614835,66.5134177 L518.34243,66.5134177 L518.34243,81 L520.614835,81 Z M537.941924,81.1704304 C538.53843,81.1704304 539.134937,81.1136203 539.646228,81 L539.646228,79.0116456 C537.714684,79.1536709 536.805722,78.8696203 536.805722,77.2221266 L536.805722,68.5017722 L539.646228,68.5017722 L539.646228,66.5134177 L536.805722,66.5134177 L536.805722,61.684557 L534.533316,61.684557 L534.533316,66.5134177 L532.402937,66.5134177 L532.402937,68.5017722 L534.533316,68.5017722 L534.533316,77.4493671 C534.533316,80.4034937 536.01038,81.1704304 537.941924,81.1704304 Z M444.972152,116.36254 C448.096709,116.36254 449.999848,115.226337 451.533722,113.095958 L451.590532,113.095958 L452.442684,115.964869 L454.146987,115.964869 L454.146987,105.398185 L444.972152,105.398185 L444.972152,107.67059 L451.590532,107.67059 C451.590532,111.476869 448.608,114.090135 444.972152,114.090135 C439.859241,114.090135 438.382177,109.63054 438.382177,105.795856 C438.382177,101.989578 440.427342,97.5299829 445.256203,97.5299829 C448.323949,97.5299829 450.653165,98.8934259 451.249671,101.790742 L453.806127,101.790742 C453.096,97.9276538 450.397519,95.2575778 445.256203,95.2575778 C439.632,95.2575778 435.825722,99.6887677 435.825722,105.795856 C435.825722,111.93135 439.063899,116.36254 444.972152,116.36254 Z M461.219848,116.36254 C463.605873,116.36254 465.224962,115.510388 466.133924,114.146945 L466.190734,114.146945 C466.588405,115.737628 467.412152,116.106894 468.775595,116.106894 C469.201671,116.106894 469.514127,116.078489 470.110633,115.879654 L470.110633,114.28897 C468.661975,114.459401 468.463139,113.834489 468.463139,112.698287 L468.463139,105.653831 C468.463139,102.160008 465.991899,101.080616 463.236608,101.080616 C459.032658,101.080616 457.299949,103.18259 457.157924,105.966287 L459.430329,105.966287 C459.572354,103.864312 460.481316,103.06897 463.236608,103.06897 C465.565823,103.06897 466.190734,104.034742 466.190734,105.170945 C466.190734,106.619603 465.082937,106.932059 462.640101,107.38654 C458.890633,108.096666 456.447797,108.948818 456.447797,112.243806 C456.447797,114.686641 458.294127,116.36254 461.219848,116.36254 Z M461.447089,114.374185 C459.572354,114.374185 458.720203,113.550439 458.720203,112.130185 C458.720203,110.397477 460.026835,109.68735 462.838937,109.090844 C464.37281,108.778388 465.764658,108.380717 466.190734,107.954641 L466.190734,110.369071 C466.190734,113.152768 464.14557,114.374185 461.447089,114.374185 Z M476.416557,116.135299 C477.013063,116.135299 477.60957,116.078489 478.120861,115.964869 L478.120861,113.976515 C476.189316,114.11854 475.280354,113.834489 475.280354,112.186996 L475.280354,103.466641 L478.120861,103.466641 L478.120861,101.478287 L475.280354,101.478287 L475.280354,96.6494259 L473.007949,96.6494259 L473.007949,101.478287 L470.87757,101.478287 L470.87757,103.466641 L473.007949,103.466641 L473.007949,112.414236 C473.007949,115.368363 474.485013,116.135299 476.416557,116.135299 Z M486.756,116.36254 C490.363443,116.36254 492.437013,114.203755 493.175544,111.505274 L490.903139,111.505274 C490.647494,112.499451 489.568101,114.374185 486.670785,114.374185 C483.517823,114.374185 481.955544,111.93135 481.955544,109.318084 L493.402785,109.318084 C493.402785,104.176768 491.18719,101.080616 486.64238,101.080616 C482.410025,101.080616 479.683139,103.892717 479.683139,108.721578 C479.683139,113.266388 482.353215,116.36254 486.756,116.36254 Z M491.13038,107.32973 L481.955544,107.32973 C481.955544,105.000515 483.915494,103.06897 486.64238,103.06897 C489.369266,103.06897 491.13038,105.000515 491.13038,107.32973 Z M501.242582,115.964869 L504.452354,104.006337 L504.509165,104.006337 L507.775747,115.964869 L510.190177,115.964869 L514.820203,101.478287 L512.320557,101.478287 L509.02557,113.493628 L508.968759,113.493628 L505.702177,101.478287 L503.287747,101.478287 L500.04957,113.493628 L499.992759,113.493628 L496.697772,101.478287 L494.198127,101.478287 L498.828152,115.964869 L501.242582,115.964869 Z M520.387595,116.36254 C522.77362,116.36254 524.392709,115.510388 525.301671,114.146945 L525.358481,114.146945 C525.756152,115.737628 526.579899,116.106894 527.943342,116.106894 C528.369418,116.106894 528.681873,116.078489 529.27838,115.879654 L529.27838,114.28897 C527.829722,114.459401 527.630886,113.834489 527.630886,112.698287 L527.630886,105.653831 C527.630886,102.160008 525.159646,101.080616 522.404354,101.080616 C518.200405,101.080616 516.467696,103.18259 516.325671,105.966287 L518.598076,105.966287 C518.740101,103.864312 519.649063,103.06897 522.404354,103.06897 C524.73357,103.06897 525.358481,104.034742 525.358481,105.170945 C525.358481,106.619603 524.250684,106.932059 521.807848,107.38654 C518.05838,108.096666 515.615544,108.948818 515.615544,112.243806 C515.615544,114.686641 517.461873,116.36254 520.387595,116.36254 Z M520.614835,114.374185 C518.740101,114.374185 517.887949,113.550439 517.887949,112.130185 C517.887949,110.397477 519.194582,109.68735 522.006684,109.090844 C523.540557,108.778388 524.932405,108.380717 525.358481,107.954641 L525.358481,110.369071 C525.358481,113.152768 523.313316,114.374185 520.614835,114.374185 Z M533.027848,120.85054 C535.697924,120.85054 536.436456,118.72016 537.061367,117.157882 L543.253671,101.478287 L540.697215,101.478287 L536.521671,113.294793 L536.464861,113.294793 L532.033671,101.478287 L529.477215,101.478287 L534.959392,114.771856 C535.527494,116.192109 534.930987,117.413527 534.334481,118.066844 C533.567544,118.89059 532.686987,118.975806 531.437165,118.862185 L531.096304,118.862185 L531.096304,120.566489 C531.46557,120.680109 532.118886,120.85054 533.027848,120.85054 Z" id="InvariantGateway" fill="#FFFFFF" fill-rule="nonzero"></path>
            <rect id="Rectangle" fill="#FFFFFF" opacity="0.866792225" x="534" y="223" width="115" height="82" rx="11"></rect>
            <path d="M547.210443,248 L548.219937,245.058544 L553.302215,245.058544 L554.311709,248 L556.417721,248 L551.857595,235.55538 L549.681962,235.55538 L545.10443,248 L547.210443,248 Z M552.745253,243.335443 L548.794304,243.335443 L550.761076,237.452532 L550.795886,237.452532 L552.745253,243.335443 Z M561.325949,251.080696 C563.849683,251.080696 565.398734,249.949367 565.398734,247.390823 L565.398734,239.106013 L563.571202,239.106013 L563.571202,240.150317 L563.536392,240.150317 C563.066455,239.523734 562.248417,238.862342 560.838607,238.862342 C558.610759,238.862342 556.939873,240.393987 556.939873,243.213608 C556.939873,246.015823 558.610759,247.564873 560.838607,247.564873 C562.248417,247.564873 563.066455,246.903481 563.536392,246.242089 L563.571202,246.242089 L563.571202,247.321203 C563.571202,248.922468 562.787974,249.618671 561.256329,249.618671 C559.811709,249.618671 559.185126,249.026899 559.011076,248.243671 L557.166139,248.243671 C557.357595,249.740506 558.767405,251.080696 561.325949,251.080696 Z M561.186709,246.068038 C559.585443,246.068038 558.767405,244.849684 558.767405,243.213608 C558.767405,241.560127 559.585443,240.359177 561.186709,240.359177 C562.666139,240.359177 563.553797,241.333861 563.553797,243.213608 C563.553797,245.093354 562.666139,246.068038 561.186709,246.068038 Z M571.125,248.261076 C573.405063,248.261076 574.727848,246.973101 575.180379,245.28481 L573.352848,245.28481 C573.196202,245.824367 572.587025,246.764241 571.072784,246.764241 C569.454114,246.764241 568.496835,245.528481 568.496835,244.031646 L575.31962,244.031646 C575.31962,240.863924 573.90981,238.862342 571.037974,238.862342 C568.357595,238.862342 566.669303,240.672468 566.669303,243.561709 C566.669303,246.346519 568.357595,248.261076 571.125,248.261076 Z M573.492088,242.674051 L568.496835,242.674051 C568.496835,241.299051 569.558544,240.306962 571.037974,240.306962 C572.517405,240.306962 573.492088,241.299051 573.492088,242.674051 Z M578.400316,248 L578.400316,242.587025 C578.400316,241.264241 579.305379,240.411393 580.715189,240.411393 C581.968354,240.411393 582.473101,241.177215 582.473101,242.378165 L582.473101,248 L584.318037,248 L584.318037,241.856013 C584.318037,239.81962 583.012658,238.862342 581.359177,238.862342 C579.827531,238.862342 578.905063,239.558544 578.435126,240.254747 L578.400316,240.254747 L578.400316,239.106013 L576.572784,239.106013 L576.572784,248 L578.400316,248 Z M588.982594,248.121835 C589.469936,248.121835 589.870252,248.06962 590.235759,247.982595 L590.235759,246.48576 C589.052214,246.55538 588.564873,246.433544 588.564873,245.424051 L588.564873,240.602848 L590.235759,240.602848 L590.235759,239.106013 L588.564873,239.106013 L588.564873,236.303798 L586.719936,236.303798 L586.719936,239.106013 L585.431961,239.106013 L585.431961,240.602848 L586.719936,240.602848 L586.719936,245.580696 C586.719936,247.460443 587.520569,248.121835 588.982594,248.121835 Z M600.400316,248 L600.400316,237.313291 L604.36867,237.313291 L604.36867,235.55538 L594.343354,235.55538 L594.343354,237.313291 L598.329113,237.313291 L598.329113,248 L600.400316,248 Z M607.414556,248 L607.414556,243.457279 C607.414556,241.560127 608.824366,240.376582 610.582277,240.672468 L610.617088,240.672468 L610.617088,238.949367 C610.356012,238.914557 610.129746,238.897152 609.816455,238.897152 C608.650315,238.897152 607.919303,239.662975 607.449366,240.776899 L607.414556,240.776899 L607.414556,239.106013 L605.587024,239.106013 L605.587024,248 L607.414556,248 Z M614.20253,248.261076 C615.57753,248.261076 616.587024,247.721519 617.143986,246.938291 L617.178796,246.938291 C617.352847,247.808544 617.805379,248.156646 618.780062,248.156646 C619.128163,248.156646 619.424049,248.121835 619.841771,247.96519 L619.841771,247.094937 C619.128163,247.164557 618.988923,246.833861 618.988923,246.207279 L618.988923,241.977848 C618.988923,239.61076 617.526898,238.862342 615.560125,238.862342 C612.879746,238.862342 611.783227,240.202532 611.696201,241.908228 L613.471518,241.908228 C613.558543,240.759494 614.0981,240.306962 615.560125,240.306962 C616.77848,240.306962 617.161391,240.794304 617.161391,241.438291 C617.161391,242.291139 616.325948,242.46519 614.950948,242.726266 C612.7231,243.161392 611.27848,243.77057 611.27848,245.719937 C611.27848,247.216772 612.392404,248.261076 614.20253,248.261076 Z M614.602847,246.816456 C613.610758,246.816456 613.123417,246.363924 613.123417,245.545886 C613.123417,244.640823 613.784809,244.205696 615.299049,243.875 C616.151898,243.700949 616.865505,243.492089 617.161391,243.283228 L617.161391,244.623418 C617.161391,246.068038 616.117087,246.816456 614.602847,246.816456 Z M624.819619,248.261076 C627.134492,248.261076 628.718353,246.746835 628.857594,244.693038 L627.030062,244.693038 C626.960442,245.685127 626.386075,246.764241 624.819619,246.764241 C623.009492,246.764241 622.261075,245.232595 622.261075,243.561709 C622.261075,241.890823 623.026897,240.359177 624.819619,240.359177 C626.386075,240.359177 626.960442,241.455696 627.030062,242.36076 L628.857594,242.36076 C628.631328,240.341772 627.117087,238.862342 624.802214,238.862342 C622.156644,238.862342 620.433543,240.776899 620.433543,243.561709 C620.433543,246.346519 622.156644,248.261076 624.819619,248.261076 Z M634.044302,248.261076 C636.324366,248.261076 637.64715,246.973101 638.099682,245.28481 L636.27215,245.28481 C636.115505,245.824367 635.506328,246.764241 633.992087,246.764241 C632.373416,246.764241 631.416138,245.528481 631.416138,244.031646 L638.238922,244.031646 C638.238922,240.863924 636.829112,238.862342 633.957277,238.862342 C631.276897,238.862342 629.588606,240.672468 629.588606,243.561709 C629.588606,246.346519 631.276897,248.261076 634.044302,248.261076 Z M636.411391,242.674051 L631.416138,242.674051 C631.416138,241.299051 632.477847,240.306962 633.957277,240.306962 C635.436707,240.306962 636.411391,241.299051 636.411391,242.674051 Z" id="AgentTrace" fill="#4A4A4A" fill-rule="nonzero"></path>
            <path d="M548.555988,265.149951 C550.494645,265.149951 551.319377,264.111003 551.319377,262.997079 C551.319377,261.251217 550.194742,260.962025 548.470302,260.533593 C547.345667,260.255112 546.520935,260.115872 546.520935,259.098345 C546.520935,258.466407 547.099318,258.048686 548.18111,258.048686 C549.391431,258.048686 549.969815,258.584226 550.109055,259.612464 L551.073028,259.612464 C550.944498,258.027264 549.809153,257.191821 548.18111,257.191821 C546.488802,257.191821 545.556962,257.995132 545.556962,259.205453 C545.556962,260.694255 546.927945,261.090555 548.074002,261.358325 C549.787731,261.754625 550.355404,261.94742 550.355404,262.997079 C550.355404,263.682571 549.884128,264.293087 548.555988,264.293087 C546.949367,264.293087 546.306719,263.479065 546.19961,262.429406 L545.235638,262.429406 C545.342746,264.185979 546.745862,265.149951 548.555988,265.149951 Z M554.650438,265.149951 C556.010711,265.149951 556.7926,264.33593 557.071081,263.318403 L556.214216,263.318403 C556.117819,263.693281 555.710808,264.400195 554.618306,264.400195 C553.429406,264.400195 552.840311,263.479065 552.840311,262.493671 L557.156767,262.493671 C557.156767,260.555015 556.321324,259.387537 554.607595,259.387537 C553.011684,259.387537 551.983447,260.447907 551.983447,262.268744 C551.983447,263.982473 552.990263,265.149951 554.650438,265.149951 Z M556.299902,261.743914 L552.840311,261.743914 C552.840311,260.865628 553.579357,260.137293 554.607595,260.137293 C555.635832,260.137293 556.299902,260.865628 556.299902,261.743914 Z M560.337877,265.149951 C561.687439,265.149951 562.662122,264.228822 562.737098,262.986368 L561.880233,262.986368 C561.83739,263.639727 561.44109,264.400195 560.337877,264.400195 C559.041869,264.400195 558.549172,263.296982 558.549172,262.268744 C558.549172,261.240506 559.041869,260.137293 560.337877,260.137293 C561.430379,260.137293 561.83739,260.908471 561.880233,261.508277 L562.737098,261.508277 C562.608568,260.287244 561.687439,259.387537 560.337877,259.387537 C558.741967,259.387537 557.692307,260.555015 557.692307,262.268744 C557.692307,263.982473 558.741967,265.149951 560.337877,265.149951 Z M565.361246,265.149951 C566.293086,265.149951 566.87147,264.73223 567.160662,264.346641 L567.182083,264.346641 L567.182083,265 L568.038948,265 L568.038948,259.537488 L567.182083,259.537488 L567.182083,262.943525 C567.182083,263.789679 566.539435,264.400195 565.575462,264.400195 C564.718598,264.400195 564.386562,263.843233 564.386562,263.136319 L564.386562,259.537488 L563.529698,259.537488 L563.529698,263.350536 C563.529698,264.6037 564.365141,265.149951 565.361246,265.149951 Z M570.074002,265 L570.074002,262.08666 C570.074002,260.919182 570.898734,260.083739 572.087633,260.276534 L572.109055,260.276534 L572.109055,259.419669 C571.959104,259.398247 571.809152,259.387537 571.605647,259.387537 C570.823758,259.387537 570.384615,259.901655 570.095423,260.61928 L570.074002,260.61928 L570.074002,259.537488 L569.217137,259.537488 L569.217137,265 L570.074002,265 Z M573.426484,258.477118 C573.672833,258.477118 573.962025,258.295034 573.962025,257.962999 C573.962025,257.630964 573.672833,257.44888 573.426484,257.44888 C573.190847,257.44888 572.890944,257.630964 572.890944,257.962999 C572.890944,258.295034 573.190847,258.477118 573.426484,258.477118 Z M573.854917,265 L573.854917,259.537488 L572.998052,259.537488 L572.998052,265 L573.854917,265 Z M576.875365,265.064265 C577.100292,265.064265 577.325219,265.042843 577.518013,265 L577.518013,264.250243 C576.789678,264.303797 576.446932,264.196689 576.446932,263.575463 L576.446932,260.287244 L577.518013,260.287244 L577.518013,259.537488 L576.446932,259.537488 L576.446932,257.716651 L575.590068,257.716651 L575.590068,259.537488 L574.786757,259.537488 L574.786757,260.287244 L575.590068,260.287244 L575.590068,263.661149 C575.590068,264.775073 576.14703,265.064265 576.875365,265.064265 Z M579.188899,266.842259 C580.195715,266.842259 580.474196,266.038948 580.709834,265.449854 L583.04479,259.537488 L582.080817,259.537488 L580.506329,263.993184 L580.484907,263.993184 L578.814021,259.537488 L577.850048,259.537488 L579.917234,264.550146 C580.13145,265.085686 579.906523,265.546251 579.681596,265.7926 C579.392404,266.103213 579.060369,266.135346 578.589094,266.092502 L578.460564,266.092502 L578.460564,266.735151 C578.599805,266.777994 578.846153,266.842259 579.188899,266.842259 Z M588.764361,265.149951 C590.703018,265.149951 591.52775,264.111003 591.52775,262.997079 C591.52775,261.251217 590.403115,260.962025 588.678675,260.533593 C587.55404,260.255112 586.729308,260.115872 586.729308,259.098345 C586.729308,258.466407 587.307692,258.048686 588.389483,258.048686 C589.599805,258.048686 590.178188,258.584226 590.317429,259.612464 L591.281401,259.612464 C591.152872,258.027264 590.017526,257.191821 588.389483,257.191821 C586.697176,257.191821 585.765335,257.995132 585.765335,259.205453 C585.765335,260.694255 587.136319,261.090555 588.282375,261.358325 C589.996104,261.754625 590.563777,261.94742 590.563777,262.997079 C590.563777,263.682571 590.092502,264.293087 588.764361,264.293087 C587.15774,264.293087 586.515092,263.479065 586.407984,262.429406 L585.444011,262.429406 C585.551119,264.185979 586.954235,265.149951 588.764361,265.149951 Z M594.83739,265.149951 C596.186951,265.149951 597.161635,264.228822 597.236611,262.986368 L596.379746,262.986368 C596.336903,263.639727 595.940603,264.400195 594.83739,264.400195 C593.541382,264.400195 593.048685,263.296982 593.048685,262.268744 C593.048685,261.240506 593.541382,260.137293 594.83739,260.137293 C595.929892,260.137293 596.336903,260.908471 596.379746,261.508277 L597.236611,261.508277 C597.108081,260.287244 596.186951,259.387537 594.83739,259.387537 C593.241479,259.387537 592.19182,260.555015 592.19182,262.268744 C592.19182,263.982473 593.241479,265.149951 594.83739,265.149951 Z M599.528724,265.149951 C600.428431,265.149951 601.038947,264.828627 601.381693,264.314508 L601.403115,264.314508 C601.553066,264.914314 601.86368,265.053554 602.377798,265.053554 C602.538461,265.053554 602.656279,265.042843 602.881206,264.967868 L602.881206,264.368062 C602.334955,264.432327 602.25998,264.196689 602.25998,263.768257 L602.25998,261.111977 C602.25998,259.794547 601.328139,259.387537 600.289191,259.387537 C598.703991,259.387537 598.050632,260.180136 597.997078,261.229796 L598.853943,261.229796 C598.907497,260.437196 599.250243,260.137293 600.289191,260.137293 C601.167477,260.137293 601.403115,260.501461 601.403115,260.929893 C601.403115,261.476144 600.985393,261.593963 600.064264,261.765336 C598.650437,262.033106 597.729308,262.35443 597.729308,263.596884 C597.729308,264.518014 598.42551,265.149951 599.528724,265.149951 Z M599.61441,264.400195 C598.907497,264.400195 598.586172,264.089581 598.586172,263.554041 C598.586172,262.900682 599.07887,262.632911 600.13924,262.407984 C600.717623,262.290166 601.242453,262.140214 601.403115,261.979552 L601.403115,262.889971 C601.403115,263.93963 600.631937,264.400195 599.61441,264.400195 Z M604.38072,265 L604.38072,261.593963 C604.38072,260.747809 605.023368,260.137293 605.987341,260.137293 C606.844205,260.137293 607.17624,260.694255 607.17624,261.401169 L607.17624,265 L608.033105,265 L608.033105,261.186952 C608.033105,259.933788 607.197662,259.387537 606.201557,259.387537 C605.269717,259.387537 604.691333,259.805258 604.402141,260.190847 L604.38072,260.190847 L604.38072,259.537488 L603.523855,259.537488 L603.523855,265 L604.38072,265 Z M611.321323,265.149951 C612.563777,265.149951 613.474196,264.496592 613.474196,263.500487 C613.474196,262.150925 612.370982,261.990263 611.396299,261.754625 C610.635831,261.572541 609.896786,261.518987 609.896786,260.876339 C609.896786,260.447907 610.314507,260.137293 611.085685,260.137293 C612.113923,260.137293 612.317428,260.683544 612.403115,261.101266 L613.259979,261.101266 C613.174293,260.158715 612.445958,259.387537 611.085685,259.387537 C609.800388,259.387537 609.039921,260.083739 609.039921,260.940604 C609.039921,262.225901 610.282375,262.322298 611.117818,262.525803 C611.899707,262.718598 612.617331,262.761441 612.617331,263.554041 C612.617331,263.918208 612.253163,264.400195 611.321323,264.400195 C609.95034,264.400195 609.736124,263.789679 609.68257,263.179163 L608.825705,263.179163 C608.879259,264.357352 609.650437,265.149951 611.321323,265.149951 Z M548.491723,277.593766 C550.601753,277.593766 551.89776,276.233493 551.89776,273.770007 C551.89776,271.306521 550.601753,269.935538 548.491723,269.935538 L545.717624,269.935538 L545.717624,277.593766 L548.491723,277.593766 Z M548.491723,276.736901 L546.681597,276.736901 L546.681597,270.792402 L548.491723,270.792402 C550.44109,270.792402 550.933788,272.270494 550.933788,273.770007 C550.933788,275.26952 550.44109,276.736901 548.491723,276.736901 Z M555.271665,277.743717 C556.631937,277.743717 557.413826,276.929695 557.692307,275.912169 L556.835443,275.912169 C556.739046,276.287047 556.332035,276.99396 555.239532,276.99396 C554.050633,276.99396 553.461538,276.072831 553.461538,275.087436 L557.777994,275.087436 C557.777994,273.14878 556.942551,271.981302 555.228822,271.981302 C553.632911,271.981302 552.604674,273.041672 552.604674,274.862509 C552.604674,276.576239 553.61149,277.743717 555.271665,277.743717 Z M556.921129,274.33768 L553.461538,274.33768 C553.461538,273.459394 554.200584,272.731059 555.228822,272.731059 C556.257059,272.731059 556.921129,273.459394 556.921129,274.33768 Z M561.216163,277.743717 C562.587147,277.743717 563.679649,276.661925 563.679649,274.862509 C563.679649,273.063094 562.587147,271.981302 561.216163,271.981302 C560.337877,271.981302 559.823758,272.366891 559.502434,272.838167 L559.481012,272.838167 L559.481012,269.935538 L558.624148,269.935538 L558.624148,277.593766 L559.481012,277.593766 L559.481012,276.918985 L559.502434,276.918985 C559.823758,277.336706 560.337877,277.743717 561.216163,277.743717 Z M561.130477,276.99396 C560.11295,276.99396 559.481012,276.147806 559.481012,274.862509 C559.481012,273.577213 560.11295,272.731059 561.130477,272.731059 C562.255112,272.731059 562.822785,273.791429 562.822785,274.862509 C562.822785,275.93359 562.255112,276.99396 561.130477,276.99396 Z M566.34664,277.743717 C567.278481,277.743717 567.856864,277.325995 568.146056,276.940406 L568.167478,276.940406 L568.167478,277.593766 L569.024342,277.593766 L569.024342,272.131253 L568.167478,272.131253 L568.167478,275.53729 C568.167478,276.383444 567.524829,276.99396 566.560857,276.99396 C565.703992,276.99396 565.371957,276.436998 565.371957,275.730085 L565.371957,272.131253 L564.515092,272.131253 L564.515092,275.944301 C564.515092,277.197466 565.350535,277.743717 566.34664,277.743717 Z M572.526777,279.489579 C574.02629,279.489579 574.947419,278.750533 574.947419,277.293863 L574.947419,272.131253 L574.090555,272.131253 L574.090555,272.806034 L574.069133,272.806034 C573.747809,272.388313 573.23369,271.981302 572.333982,271.981302 C570.98442,271.981302 569.891918,272.848878 569.891918,274.648293 C569.891918,276.447709 570.98442,277.315284 572.333982,277.315284 C573.23369,277.315284 573.747809,276.929695 574.069133,276.45842 L574.090555,276.45842 L574.090555,277.283152 C574.090555,278.300679 573.50146,278.739822 572.483933,278.739822 C571.466407,278.739822 571.016553,278.3221 570.909445,277.765138 L570.05258,277.765138 C570.138266,278.696979 571.027263,279.489579 572.526777,279.489579 Z M572.44109,276.565528 C571.316455,276.565528 570.748782,275.719374 570.748782,274.648293 C570.748782,273.577213 571.316455,272.731059 572.44109,272.731059 C573.458617,272.731059 574.090555,273.362996 574.090555,274.648293 C574.090555,275.93359 573.458617,276.565528 572.44109,276.565528 Z M578.449853,279.489579 C579.949367,279.489579 580.870496,278.750533 580.870496,277.293863 L580.870496,272.131253 L580.013631,272.131253 L580.013631,272.806034 L579.99221,272.806034 C579.670885,272.388313 579.156767,271.981302 578.257059,271.981302 C576.907497,271.981302 575.814995,272.848878 575.814995,274.648293 C575.814995,276.447709 576.907497,277.315284 578.257059,277.315284 C579.156767,277.315284 579.670885,276.929695 579.99221,276.45842 L580.013631,276.45842 L580.013631,277.283152 C580.013631,278.300679 579.424537,278.739822 578.40701,278.739822 C577.389483,278.739822 576.939629,278.3221 576.832521,277.765138 L575.975657,277.765138 C576.061343,278.696979 576.95034,279.489579 578.449853,279.489579 Z M578.364167,276.565528 C577.239532,276.565528 576.671859,275.719374 576.671859,274.648293 C576.671859,273.577213 577.239532,272.731059 578.364167,272.731059 C579.381694,272.731059 580.013631,273.362996 580.013631,274.648293 C580.013631,275.93359 579.381694,276.565528 578.364167,276.565528 Z M582.584225,271.070883 C582.830574,271.070883 583.119766,270.8888 583.119766,270.556765 C583.119766,270.22473 582.830574,270.042646 582.584225,270.042646 C582.348587,270.042646 582.048685,270.22473 582.048685,270.556765 C582.048685,270.8888 582.348587,271.070883 582.584225,271.070883 Z M583.012658,277.593766 L583.012658,272.131253 L582.155793,272.131253 L582.155793,277.593766 L583.012658,277.593766 Z M585.154819,277.593766 L585.154819,274.187729 C585.154819,273.341575 585.797468,272.731059 586.76144,272.731059 C587.618305,272.731059 587.95034,273.288021 587.95034,273.994934 L587.95034,277.593766 L588.807205,277.593766 L588.807205,273.780718 C588.807205,272.527553 587.971762,271.981302 586.975657,271.981302 C586.043816,271.981302 585.465433,272.399024 585.176241,272.784613 L585.154819,272.784613 L585.154819,272.131253 L584.297955,272.131253 L584.297955,277.593766 L585.154819,277.593766 Z M592.277507,279.489579 C593.77702,279.489579 594.698149,278.750533 594.698149,277.293863 L594.698149,272.131253 L593.841284,272.131253 L593.841284,272.806034 L593.819863,272.806034 C593.498539,272.388313 592.98442,271.981302 592.084712,271.981302 C590.73515,271.981302 589.642648,272.848878 589.642648,274.648293 C589.642648,276.447709 590.73515,277.315284 592.084712,277.315284 C592.98442,277.315284 593.498539,276.929695 593.819863,276.45842 L593.841284,276.45842 L593.841284,277.283152 C593.841284,278.300679 593.25219,278.739822 592.234663,278.739822 C591.217137,278.739822 590.767283,278.3221 590.660175,277.765138 L589.80331,277.765138 C589.888996,278.696979 590.777993,279.489579 592.277507,279.489579 Z M592.19182,276.565528 C591.067185,276.565528 590.499512,275.719374 590.499512,274.648293 C590.499512,273.577213 591.067185,272.731059 592.19182,272.731059 C593.209347,272.731059 593.841284,273.362996 593.841284,274.648293 C593.841284,275.93359 593.209347,276.565528 592.19182,276.565528 Z M548.84518,290.187531 L551.522882,282.529303 L550.505355,282.529303 L548.32035,289.223558 L548.30964,289.223558 L546.124635,282.529303 L545.107108,282.529303 L547.78481,290.187531 L548.84518,290.187531 Z M552.754625,283.664649 C553.000974,283.664649 553.290165,283.482565 553.290165,283.15053 C553.290165,282.818495 553.000974,282.636411 552.754625,282.636411 C552.518987,282.636411 552.219085,282.818495 552.219085,283.15053 C552.219085,283.482565 552.518987,283.664649 552.754625,283.664649 Z M553.183057,290.187531 L553.183057,284.725019 L552.326193,284.725019 L552.326193,290.187531 L553.183057,290.187531 Z M556.610516,290.337482 C557.85297,290.337482 558.763388,289.684123 558.763388,288.688018 C558.763388,287.573162 558.010534,287.269636 557.199205,287.064943 L556.941863,287.002757 L556.941863,287.002757 L556.685492,286.942156 L556.685492,286.942156 C555.925024,286.760072 555.185978,286.706518 555.185978,286.06387 C555.185978,285.635438 555.6037,285.324824 556.374878,285.324824 C557.403116,285.324824 557.606621,285.871075 557.692307,286.288797 L558.549172,286.288797 C558.463486,285.346246 557.735151,284.575068 556.374878,284.575068 C555.089581,284.575068 554.329114,285.27127 554.329114,286.128135 C554.329114,287.413432 555.571567,287.509829 556.407011,287.713334 C557.1889,287.906129 557.906524,287.948972 557.906524,288.741572 C557.906524,289.105739 557.542356,289.587726 556.610516,289.587726 C555.239532,289.587726 555.025316,288.97721 554.971762,288.366694 L554.114898,288.366694 C554.168452,289.544883 554.93963,290.337482 556.610516,290.337482 Z M561.398247,290.337482 C562.330087,290.337482 562.908471,289.919761 563.197663,289.534172 L563.219084,289.534172 L563.219084,290.187531 L564.075949,290.187531 L564.075949,284.725019 L563.219084,284.725019 L563.219084,288.131056 C563.219084,288.97721 562.576436,289.587726 561.612463,289.587726 C560.755599,289.587726 560.423564,289.030764 560.423564,288.32385 L560.423564,284.725019 L559.566699,284.725019 L559.566699,288.538067 C559.566699,289.791231 560.402142,290.337482 561.398247,290.337482 Z M566.721519,290.337482 C567.621226,290.337482 568.231743,290.016158 568.574488,289.502039 L568.59591,289.502039 C568.745861,290.101845 569.056475,290.241085 569.570594,290.241085 C569.731256,290.241085 569.849075,290.230374 570.074002,290.155399 L570.074002,289.555593 C569.52775,289.619858 569.452775,289.38422 569.452775,288.955788 L569.452775,286.299508 C569.452775,284.982078 568.520934,284.575068 567.481986,284.575068 C565.896786,284.575068 565.243427,285.367667 565.189873,286.417327 L566.046738,286.417327 C566.100292,285.624727 566.443038,285.324824 567.481986,285.324824 C568.360272,285.324824 568.59591,285.688992 568.59591,286.117424 C568.59591,286.663675 568.178189,286.781494 567.257059,286.952867 C565.843232,287.220637 564.922103,287.541961 564.922103,288.784415 C564.922103,289.705545 565.618305,290.337482 566.721519,290.337482 Z M566.807205,289.587726 C566.100292,289.587726 565.778968,289.277112 565.778968,288.741572 C565.778968,288.088213 566.271665,287.820442 567.332035,287.595515 C567.910418,287.477697 568.435248,287.327745 568.59591,287.167083 L568.59591,288.077502 C568.59591,289.127161 567.824732,289.587726 566.807205,289.587726 Z M571.605647,290.187531 L571.605647,282.529303 L570.748782,282.529303 L570.748782,290.187531 L571.605647,290.187531 Z M573.351509,283.664649 C573.597857,283.664649 573.887049,283.482565 573.887049,283.15053 C573.887049,282.818495 573.597857,282.636411 573.351509,282.636411 C573.115871,282.636411 572.815968,282.818495 572.815968,283.15053 C572.815968,283.482565 573.115871,283.664649 573.351509,283.664649 Z M573.779941,290.187531 L573.779941,284.725019 L572.923076,284.725019 L572.923076,290.187531 L573.779941,290.187531 Z M579.253164,290.187531 L579.253164,289.437774 L575.954235,289.437774 L575.954235,289.416353 L579.135345,285.239138 L579.135345,284.725019 L575.022395,284.725019 L575.022395,285.474775 L577.925024,285.474775 L577.925024,285.496197 L574.840311,289.544883 L574.840311,290.187531 L579.253164,290.187531 Z M581.577409,290.337482 C582.477117,290.337482 583.087633,290.016158 583.430379,289.502039 L583.451801,289.502039 C583.601752,290.101845 583.912365,290.241085 584.426484,290.241085 C584.587146,290.241085 584.704965,290.230374 584.929892,290.155399 L584.929892,289.555593 C584.383641,289.619858 584.308665,289.38422 584.308665,288.955788 L584.308665,286.299508 C584.308665,284.982078 583.376825,284.575068 582.337877,284.575068 C580.752677,284.575068 580.099318,285.367667 580.045764,286.417327 L580.902628,286.417327 C580.956182,285.624727 581.298928,285.324824 582.337877,285.324824 C583.216163,285.324824 583.451801,285.688992 583.451801,286.117424 C583.451801,286.663675 583.034079,286.781494 582.11295,286.952867 C580.699123,287.220637 579.777994,287.541961 579.777994,288.784415 C579.777994,289.705545 580.474196,290.337482 581.577409,290.337482 Z M581.663096,289.587726 C580.956182,289.587726 580.634858,289.277112 580.634858,288.741572 C580.634858,288.088213 581.127555,287.820442 582.187925,287.595515 C582.766309,287.477697 583.291139,287.327745 583.451801,287.167083 L583.451801,288.077502 C583.451801,289.127161 582.680623,289.587726 581.663096,289.587726 Z M587.307692,290.251796 C587.532619,290.251796 587.757546,290.230374 587.95034,290.187531 L587.95034,289.437774 C587.222005,289.491328 586.879259,289.38422 586.879259,288.762994 L586.879259,285.474775 L587.95034,285.474775 L587.95034,284.725019 L586.879259,284.725019 L586.879259,282.904182 L586.022395,282.904182 L586.022395,284.725019 L585.219084,284.725019 L585.219084,285.474775 L586.022395,285.474775 L586.022395,288.84868 C586.022395,289.962604 586.579357,290.251796 587.307692,290.251796 Z M589.385588,283.664649 C589.631937,283.664649 589.921129,283.482565 589.921129,283.15053 C589.921129,282.818495 589.631937,282.636411 589.385588,282.636411 C589.149951,282.636411 588.850048,282.818495 588.850048,283.15053 C588.850048,283.482565 589.149951,283.664649 589.385588,283.664649 Z M589.814021,290.187531 L589.814021,284.725019 L588.957156,284.725019 L588.957156,290.187531 L589.814021,290.187531 Z M593.466406,290.337482 C595.126581,290.337482 596.133397,289.159293 596.133397,287.456275 C596.133397,285.753256 595.126581,284.575068 593.466406,284.575068 C591.79552,284.575068 590.788704,285.753256 590.788704,287.456275 C590.788704,289.159293 591.79552,290.337482 593.466406,290.337482 Z M593.466406,289.587726 C592.234663,289.587726 591.645569,288.623753 591.645569,287.456275 C591.645569,286.288797 592.234663,285.324824 593.466406,285.324824 C594.687438,285.324824 595.276533,286.288797 595.276533,287.456275 C595.276533,288.623753 594.687438,289.587726 593.466406,289.587726 Z M597.857837,290.187531 L597.857837,286.781494 C597.857837,285.93534 598.500486,285.324824 599.464459,285.324824 C600.321323,285.324824 600.653358,285.881786 600.653358,286.5887 L600.653358,290.187531 L601.510223,290.187531 L601.510223,286.374483 C601.510223,285.121319 600.67478,284.575068 599.678675,284.575068 C598.746835,284.575068 598.168451,284.992789 597.879259,285.378378 L597.857837,285.378378 L597.857837,284.725019 L597.000973,284.725019 L597.000973,290.187531 L597.857837,290.187531 Z" id="SecurityScansDebuggingVisualization" fill="#4A4A4A" fill-rule="nonzero"></path>
            <g id="Group-7" transform="translate(385.000000, 353.000000)"></g>
            <g id="Group-8" transform="translate(800.000000, 7.000000)"></g>
            <g id="Group-9" transform="translate(229.000000, 28.000000)">
                <g id="Group-11"></g>
                <g id="Group-6" transform="translate(0.000000, 72.000000)"></g>
            </g>
            <g id="Group-9-Copy" transform="translate(628.000000, 28.000000)">
                <g id="Group-11"></g>
                <g id="Group-6" transform="translate(0.000000, 72.000000)"></g>
            </g>
            <g id="Group-12" transform="translate(542.000000, 236.000000)"></g>
        </g>
    </g>
</svg>