<?xml version="1.0" encoding="UTF-8"?>
<svg width="975px" height="415px" viewBox="0 0 975 415" version="1.1" xmlns="http://www.w3.org/2000/svg" xmlns:xlink="http://www.w3.org/1999/xlink">
    <title>Group 10</title>
    <g id="Page-1" stroke="none" stroke-width="1" fill="none" fill-rule="evenodd">
        <g id="Group-13">
            <rect id="Rectangle-Copy-4" fill="#8993FE" x="0" y="5" width="175" height="175" rx="30"></rect>
            <path d="M54.4678228,103 L56.2573418,97.9154937 L65.2049367,97.9154937 L66.9944557,103 L69.6361266,103 L62.1655949,82.6903797 L59.3250886,82.6903797 L51.8261519,103 L54.4678228,103 Z M64.3811899,95.6430886 L57.1094937,95.6430886 L60.7169367,85.048 L60.7737468,85.048 L64.3811899,95.6430886 Z M77.6463544,108.027696 C81.6230633,108.027696 84.0658987,106.067747 84.0658987,102.204658 L84.0658987,88.5134177 L81.7934937,88.5134177 L81.7934937,90.3029367 L81.7366835,90.3029367 C80.8845316,89.1951392 79.5210886,88.1157468 77.1350633,88.1157468 C73.5560253,88.1157468 70.6587089,90.416557 70.6587089,95.1886076 C70.6587089,99.9606582 73.5560253,102.261468 77.1350633,102.261468 C79.5210886,102.261468 80.8845316,101.238886 81.7366835,99.9890633 L81.7934937,99.9890633 L81.7934937,102.176253 C81.7934937,104.874734 80.2312152,106.039342 77.5327342,106.039342 C74.8342532,106.039342 73.6412405,104.931544 73.3571899,103.454481 L71.0847848,103.454481 C71.3120253,105.925722 73.6696456,108.027696 77.6463544,108.027696 Z M77.4191139,100.273114 C74.4365823,100.273114 72.9311139,98.0291139 72.9311139,95.1886076 C72.9311139,92.3481013 74.4365823,90.1041013 77.4191139,90.1041013 C80.1175949,90.1041013 81.7934937,91.78 81.7934937,95.1886076 C81.7934937,98.5972152 80.1175949,100.273114 77.4191139,100.273114 Z M93.4395696,103.397671 C97.0470127,103.397671 99.1205823,101.238886 99.8591139,98.5404051 L97.5867089,98.5404051 C97.3310633,99.5345823 96.2516709,101.409316 93.3543544,101.409316 C90.2013924,101.409316 88.6391139,98.966481 88.6391139,96.3532152 L100.086354,96.3532152 C100.086354,91.2118987 97.8707595,88.1157468 93.3259494,88.1157468 C89.0935949,88.1157468 86.3667089,90.9278481 86.3667089,95.7567089 C86.3667089,100.301519 89.0367848,103.397671 93.4395696,103.397671 Z M97.8139494,94.3648608 L88.6391139,94.3648608 C88.6391139,92.0356456 90.5990633,90.1041013 93.3259494,90.1041013 C96.0528354,90.1041013 97.8139494,92.0356456 97.8139494,94.3648608 Z M104.602759,103 L104.602759,93.9671899 C104.602759,91.7231899 106.307063,90.1041013 108.863519,90.1041013 C111.135924,90.1041013 112.016481,91.5811646 112.016481,93.4558987 L112.016481,103 L114.288886,103 L114.288886,92.8877975 C114.288886,89.5644051 112.073291,88.1157468 109.43162,88.1157468 C106.96038,88.1157468 105.426506,89.2235443 104.65957,90.2461266 L104.602759,90.2461266 L104.602759,88.5134177 L102.330354,88.5134177 L102.330354,103 L104.602759,103 Z M121.929848,103.17043 C122.526354,103.17043 123.122861,103.11362 123.634152,103 L123.634152,101.011646 C121.702608,101.153671 120.793646,100.86962 120.793646,99.2221266 L120.793646,90.5017722 L123.634152,90.5017722 L123.634152,88.5134177 L120.793646,88.5134177 L120.793646,83.684557 L118.521241,83.684557 L118.521241,88.5134177 L116.390861,88.5134177 L116.390861,90.5017722 L118.521241,90.5017722 L118.521241,99.4493671 C118.521241,102.403494 119.998304,103.17043 121.929848,103.17043 Z" id="Agent" fill="#FFFFFF" fill-rule="nonzero"></path>
            <rect id="Rectangle-Copy-6" fill="#3D39FF" x="402" y="0" width="175" height="175" rx="30"></rect>
            <rect id="Rectangle-Copy-7" fill="#7F7B8C" x="385" y="351" width="209" height="64" rx="32"></rect>
            <path d="M453.291924,394 L453.291924,391.727595 L441.162962,391.727595 L441.162962,384.626329 L451.58762,384.626329 L451.58762,382.353924 L441.162962,382.353924 L441.162962,375.962785 L452.951063,375.962785 L452.951063,373.69038 L438.606506,373.69038 L438.606506,394 L453.291924,394 Z M457.240228,394 L461.472582,388.091747 L461.529392,388.091747 L465.790152,394 L468.488633,394 L462.86443,386.586278 L467.977342,379.513418 L465.278861,379.513418 L461.529392,385.052405 L461.472582,385.052405 L457.723114,379.513418 L455.024633,379.513418 L460.137544,386.586278 L454.541747,394 L457.240228,394 Z M472.493747,398.885671 L472.493747,392.125266 L472.550557,392.125266 C473.402709,393.375089 474.766152,394.397671 477.152177,394.397671 C480.731215,394.397671 483.628532,391.528759 483.628532,386.756709 C483.628532,381.984658 480.731215,379.115747 477.152177,379.115747 C474.766152,379.115747 473.402709,380.195139 472.550557,381.302937 L472.493747,381.302937 L472.493747,379.513418 L470.221342,379.513418 L470.221342,398.885671 L472.493747,398.885671 Z M476.868127,392.409316 C474.169646,392.409316 472.493747,390.165316 472.493747,386.756709 C472.493747,383.348101 474.169646,381.104101 476.868127,381.104101 C479.850658,381.104101 481.356127,383.916203 481.356127,386.756709 C481.356127,389.597215 479.850658,392.409316 476.868127,392.409316 Z M488.372177,394 L488.372177,373.69038 L486.099772,373.69038 L486.099772,394 L488.372177,394 Z M497.859468,394.397671 C502.262253,394.397671 504.932329,391.273114 504.932329,386.756709 C504.932329,382.240304 502.262253,379.115747 497.859468,379.115747 C493.428278,379.115747 490.758203,382.240304 490.758203,386.756709 C490.758203,391.273114 493.428278,394.397671 497.859468,394.397671 Z M497.859468,392.409316 C494.592886,392.409316 493.030608,389.852861 493.030608,386.756709 C493.030608,383.660557 494.592886,381.104101 497.859468,381.104101 C501.097646,381.104101 502.659924,383.660557 502.659924,386.756709 C502.659924,389.852861 501.097646,392.409316 497.859468,392.409316 Z M509.505544,394 L509.505544,386.273823 C509.505544,383.177671 511.692734,380.962076 514.845696,381.473367 L514.902506,381.473367 L514.902506,379.200962 C514.504835,379.144152 514.107165,379.115747 513.567468,379.115747 C511.493899,379.115747 510.329291,380.47919 509.562354,382.382329 L509.505544,382.382329 L509.505544,379.513418 L507.233139,379.513418 L507.233139,394 L509.505544,394 Z M523.22519,394.397671 C526.832633,394.397671 528.906203,392.238886 529.644734,389.540405 L527.372329,389.540405 C527.116684,390.534582 526.037291,392.409316 523.139975,392.409316 C519.987013,392.409316 518.424734,389.966481 518.424734,387.353215 L529.871975,387.353215 C529.871975,382.211899 527.65638,379.115747 523.11157,379.115747 C518.879215,379.115747 516.152329,381.927848 516.152329,386.756709 C516.152329,391.301519 518.822405,394.397671 523.22519,394.397671 Z M527.59957,385.364861 L518.424734,385.364861 C518.424734,383.035646 520.384684,381.104101 523.11157,381.104101 C525.838456,381.104101 527.59957,383.035646 527.59957,385.364861 Z M534.38838,394 L534.38838,386.273823 C534.38838,383.177671 536.57557,380.962076 539.728532,381.473367 L539.785342,381.473367 L539.785342,379.200962 C539.387671,379.144152 538.99,379.115747 538.450304,379.115747 C536.376734,379.115747 535.212127,380.47919 534.44519,382.382329 L534.38838,382.382329 L534.38838,379.513418 L532.115975,379.513418 L532.115975,394 L534.38838,394 Z" id="Explorer" fill="#FFFFFF" fill-rule="nonzero"></path>
            <rect id="Rectangle-Copy-5" fill="#FF4572" x="800" y="5" width="175" height="175" rx="30"></rect>
            <path d="M875.086987,86 L875.086987,83.7275949 L864.435089,83.7275949 L864.435089,65.6903797 L861.878633,65.6903797 L861.878633,86 L875.086987,86 Z M890.823392,86 L890.823392,83.7275949 L880.171494,83.7275949 L880.171494,65.6903797 L877.615038,65.6903797 L877.615038,86 L890.823392,86 Z M895.907899,86 L895.907899,69.2978228 L895.964709,69.2978228 L902.100203,86 L904.372608,86 L910.508101,69.2978228 L910.564911,69.2978228 L910.564911,86 L913.121367,86 L913.121367,65.6903797 L909.627544,65.6903797 L903.26481,82.5629873 L903.208,82.5629873 L896.845266,65.6903797 L893.351443,65.6903797 L893.351443,86 L895.907899,86 Z M840.873089,120.964869 L840.873089,112.471755 L846.383671,112.471755 C850.104734,112.471755 852.973646,110.824261 852.973646,106.563502 C852.973646,102.302742 850.104734,100.655249 846.383671,100.655249 L838.316633,100.655249 L838.316633,120.964869 L840.873089,120.964869 Z M846.667722,110.19935 L840.873089,110.19935 L840.873089,102.927654 L846.667722,102.927654 C849.195772,102.927654 850.41719,104.092261 850.41719,106.563502 C850.41719,109.034742 849.195772,110.19935 846.667722,110.19935 Z M857.37643,120.964869 L857.37643,113.238692 C857.37643,110.14254 859.56362,107.926945 862.716582,108.438236 L862.773392,108.438236 L862.773392,106.165831 C862.375722,106.109021 861.978051,106.080616 861.438354,106.080616 C859.364785,106.080616 858.200177,107.444059 857.433241,109.347198 L857.37643,109.347198 L857.37643,106.478287 L855.104025,106.478287 L855.104025,120.964869 L857.37643,120.964869 Z M871.124481,121.36254 C875.527266,121.36254 878.197342,118.237983 878.197342,113.721578 C878.197342,109.205173 875.527266,106.080616 871.124481,106.080616 C866.693291,106.080616 864.023215,109.205173 864.023215,113.721578 C864.023215,118.237983 866.693291,121.36254 871.124481,121.36254 Z M871.124481,119.374185 C867.857899,119.374185 866.29562,116.81773 866.29562,113.721578 C866.29562,110.625426 867.857899,108.06897 871.124481,108.06897 C874.362658,108.06897 875.924937,110.625426 875.924937,113.721578 C875.924937,116.81773 874.362658,119.374185 871.124481,119.374185 Z M886.775671,120.964869 L891.973797,106.478287 L889.502557,106.478287 L885.497443,118.692464 L885.469038,118.692464 L881.463924,106.478287 L878.992684,106.478287 L884.19081,120.964869 L886.775671,120.964869 Z M895.013139,103.666185 C895.666456,103.666185 896.433392,103.183299 896.433392,102.302742 C896.433392,101.422185 895.666456,100.939299 895.013139,100.939299 C894.388228,100.939299 893.592886,101.422185 893.592886,102.302742 C893.592886,103.183299 894.388228,103.666185 895.013139,103.666185 Z M896.149342,120.964869 L896.149342,106.478287 L893.876937,106.478287 L893.876937,120.964869 L896.149342,120.964869 Z M905.267367,121.36254 C907.596582,121.36254 908.960025,120.283147 909.812177,119.17535 L909.868987,119.17535 L909.868987,120.964869 L912.141392,120.964869 L912.141392,100.655249 L909.868987,100.655249 L909.868987,108.353021 L909.812177,108.353021 C908.960025,107.103198 907.596582,106.080616 905.267367,106.080616 C901.631519,106.080616 898.734203,108.949527 898.734203,113.721578 C898.734203,118.493628 901.631519,121.36254 905.267367,121.36254 Z M905.494608,119.374185 C902.512076,119.374185 901.006608,116.562084 901.006608,113.721578 C901.006608,110.881071 902.512076,108.06897 905.494608,108.06897 C908.193089,108.06897 909.868987,110.31297 909.868987,113.721578 C909.868987,117.130185 908.193089,119.374185 905.494608,119.374185 Z M921.515063,121.36254 C925.122506,121.36254 927.196076,119.203755 927.934608,116.505274 L925.662203,116.505274 C925.406557,117.499451 924.327165,119.374185 921.429848,119.374185 C918.276886,119.374185 916.714608,116.93135 916.714608,114.318084 L928.161848,114.318084 C928.161848,109.176768 925.946253,106.080616 921.401443,106.080616 C917.169089,106.080616 914.442203,108.892717 914.442203,113.721578 C914.442203,118.266388 917.112278,121.36254 921.515063,121.36254 Z M925.889443,112.32973 L916.714608,112.32973 C916.714608,110.000515 918.674557,108.06897 921.401443,108.06897 C924.128329,108.06897 925.889443,110.000515 925.889443,112.32973 Z M932.678253,120.964869 L932.678253,113.238692 C932.678253,110.14254 934.865443,107.926945 938.018405,108.438236 L938.075215,108.438236 L938.075215,106.165831 C937.677544,106.109021 937.279873,106.080616 936.740177,106.080616 C934.666608,106.080616 933.502,107.444059 932.735063,109.347198 L932.678253,109.347198 L932.678253,106.478287 L930.405848,106.478287 L930.405848,120.964869 L932.678253,120.964869 Z" id="LLMProvider" fill="#FFFFFF" fill-rule="nonzero"></path>
            <circle id="Oval" fill="#BDB8FF" cx="320.5" cy="56.5" r="30.5"></circle>
            <path d="M324.992138,45.4605138 C325.546865,44.8976636 326.417534,44.8507594 327.024918,45.3198013 L327.183605,45.4605138 L332.838259,51.1979713 C335.624499,54.0249004 335.717373,58.5468947 333.116906,61.501991 L332.838284,61.8019674 L327.183609,67.5394827 C326.578454,68.153503 325.5973,68.1535062 324.992142,67.5394897 C324.437413,66.9766412 324.391183,66.0932233 324.853453,65.4769436 L324.992135,65.3159322 L330.643697,59.5815844 C332.243639,57.9489406 332.316364,55.3670434 330.864582,53.6593612 L330.646814,53.4215505 L324.992138,47.6840713 C324.386981,47.0700529 324.386981,46.0745323 324.992138,45.4605138 Z" id="Path" fill="#2F2E6B" fill-rule="nonzero"></path>
            <path d="M326.105291,54.9236586 C326.961112,54.9236586 327.654892,55.6275979 327.654892,56.4959511 C327.654892,57.2975079 327.063742,57.9589725 326.29967,58.0559933 L326.105291,58.0682437 L306.549601,58.0682437 C305.69378,58.0682437 305,57.3643043 305,56.4959511 C305,55.6943943 305.59115,55.0329298 306.355223,54.935909 L306.549601,54.9236586 L326.105291,54.9236586 Z" id="Path" fill="#2F2E6B" fill-rule="nonzero"></path>
            <circle id="Oval" fill="#BDB8FF" cx="259.5" cy="56.5" r="30.5"></circle>
            <path d="M263.992138,45.4605138 C264.546865,44.8976636 265.417534,44.8507594 266.024918,45.3198013 L266.183605,45.4605138 L271.838259,51.1979713 C274.624499,54.0249004 274.717373,58.5468947 272.116906,61.501991 L271.838284,61.8019674 L266.183609,67.5394827 C265.578454,68.153503 264.5973,68.1535062 263.992142,67.5394897 C263.437413,66.9766412 263.391183,66.0932233 263.853453,65.4769436 L263.992135,65.3159322 L269.643697,59.5815844 C271.243639,57.9489406 271.316364,55.3670434 269.864582,53.6593612 L269.646814,53.4215505 L263.992138,47.6840713 C263.386981,47.0700529 263.386981,46.0745323 263.992138,45.4605138 Z" id="Path" fill="#2F2E6B" fill-rule="nonzero"></path>
            <path d="M265.105291,54.9236586 C265.961112,54.9236586 266.654892,55.6275979 266.654892,56.4959511 C266.654892,57.2975079 266.063742,57.9589725 265.29967,58.0559933 L265.105291,58.0682437 L245.549601,58.0682437 C244.69378,58.0682437 244,57.3643043 244,56.4959511 C244,55.6943943 244.59115,55.0329298 245.355223,54.935909 L245.549601,54.9236586 L265.105291,54.9236586 Z" id="Path" fill="#2F2E6B" fill-rule="nonzero"></path>
            <circle id="Oval" fill="#BDB8FF" transform="translate(320.500000, 128.500000) rotate(180.000000) translate(-320.500000, -128.500000) " cx="320.5" cy="128.5" r="30.5"></circle>
            <path d="M306.453868,117.460514 C307.008595,116.897664 307.879263,116.850759 308.486647,117.319801 L308.645335,117.460514 L314.299989,123.197971 C317.086228,126.0249 317.179103,130.546895 314.578635,133.501991 L314.300014,133.801967 L308.645338,139.539483 C308.040183,140.153503 307.05903,140.153506 306.453871,139.53949 C305.899142,138.976641 305.852912,138.093223 306.315183,137.476944 L306.453864,137.315932 L312.105427,131.581584 C313.705369,129.948941 313.778093,127.367043 312.326311,125.659361 L312.108543,125.421551 L306.453868,119.684071 C305.848711,119.070053 305.848711,118.074532 306.453868,117.460514 Z" id="Path" fill="#2F2E6B" fill-rule="nonzero" transform="translate(311.230865, 128.500000) rotate(180.000000) translate(-311.230865, -128.500000) "></path>
            <path d="M334.450399,126.931756 C335.30622,126.931756 336,127.635696 336,128.504049 C336,129.305606 335.40885,129.96707 334.644777,130.064091 L334.450399,130.076341 L314.894709,130.076341 C314.038888,130.076341 313.345108,129.372402 313.345108,128.504049 C313.345108,127.702492 313.936258,127.041028 314.70033,126.944007 L314.894709,126.931756 L334.450399,126.931756 Z" id="Path" fill="#2F2E6B" fill-rule="nonzero" transform="translate(324.672554, 128.504049) rotate(180.000000) translate(-324.672554, -128.504049) "></path>
            <circle id="Oval" fill="#BDB8FF" transform="translate(259.500000, 128.500000) rotate(180.000000) translate(-259.500000, -128.500000) " cx="259.5" cy="128.5" r="30.5"></circle>
            <path d="M245.453868,117.460514 C246.008595,116.897664 246.879263,116.850759 247.486647,117.319801 L247.645335,117.460514 L253.299989,123.197971 C256.086228,126.0249 256.179103,130.546895 253.578635,133.501991 L253.300014,133.801967 L247.645338,139.539483 C247.040183,140.153503 246.05903,140.153506 245.453871,139.53949 C244.899142,138.976641 244.852912,138.093223 245.315183,137.476944 L245.453864,137.315932 L251.105427,131.581584 C252.705369,129.948941 252.778093,127.367043 251.326311,125.659361 L251.108543,125.421551 L245.453868,119.684071 C244.848711,119.070053 244.848711,118.074532 245.453868,117.460514 Z" id="Path" fill="#2F2E6B" fill-rule="nonzero" transform="translate(250.230865, 128.500000) rotate(180.000000) translate(-250.230865, -128.500000) "></path>
            <path d="M273.450399,126.931756 C274.30622,126.931756 275,127.635696 275,128.504049 C275,129.305606 274.40885,129.96707 273.644777,130.064091 L273.450399,130.076341 L253.894709,130.076341 C253.038888,130.076341 252.345108,129.372402 252.345108,128.504049 C252.345108,127.702492 252.936258,127.041028 253.70033,126.944007 L253.894709,126.931756 L273.450399,126.931756 Z" id="Path" fill="#2F2E6B" fill-rule="nonzero" transform="translate(263.672554, 128.504049) rotate(180.000000) translate(-263.672554, -128.504049) "></path>
            <circle id="Oval" fill="#BDB8FF" cx="719.5" cy="56.5" r="30.5"></circle>
            <path d="M723.992138,45.4605138 C724.546865,44.8976636 725.417534,44.8507594 726.024918,45.3198013 L726.183605,45.4605138 L731.838259,51.1979713 C734.624499,54.0249004 734.717373,58.5468947 732.116906,61.501991 L731.838284,61.8019674 L726.183609,67.5394827 C725.578454,68.153503 724.5973,68.1535062 723.992142,67.5394897 C723.437413,66.9766412 723.391183,66.0932233 723.853453,65.4769436 L723.992135,65.3159322 L729.643697,59.5815844 C731.243639,57.9489406 731.316364,55.3670434 729.864582,53.6593612 L729.646814,53.4215505 L723.992138,47.6840713 C723.386981,47.0700529 723.386981,46.0745323 723.992138,45.4605138 Z" id="Path" fill="#2F2E6B" fill-rule="nonzero"></path>
            <path d="M725.105291,54.9236586 C725.961112,54.9236586 726.654892,55.6275979 726.654892,56.4959511 C726.654892,57.2975079 726.063742,57.9589725 725.29967,58.0559933 L725.105291,58.0682437 L705.549601,58.0682437 C704.69378,58.0682437 704,57.3643043 704,56.4959511 C704,55.6943943 704.59115,55.0329298 705.355223,54.935909 L705.549601,54.9236586 L725.105291,54.9236586 Z" id="Path" fill="#2F2E6B" fill-rule="nonzero"></path>
            <circle id="Oval" fill="#BDB8FF" cx="658.5" cy="56.5" r="30.5"></circle>
            <path d="M662.992138,45.4605138 C663.546865,44.8976636 664.417534,44.8507594 665.024918,45.3198013 L665.183605,45.4605138 L670.838259,51.1979713 C673.624499,54.0249004 673.717373,58.5468947 671.116906,61.501991 L670.838284,61.8019674 L665.183609,67.5394827 C664.578454,68.153503 663.5973,68.1535062 662.992142,67.5394897 C662.437413,66.9766412 662.391183,66.0932233 662.853453,65.4769436 L662.992135,65.3159322 L668.643697,59.5815844 C670.243639,57.9489406 670.316364,55.3670434 668.864582,53.6593612 L668.646814,53.4215505 L662.992138,47.6840713 C662.386981,47.0700529 662.386981,46.0745323 662.992138,45.4605138 Z" id="Path" fill="#2F2E6B" fill-rule="nonzero"></path>
            <path d="M664.105291,54.9236586 C664.961112,54.9236586 665.654892,55.6275979 665.654892,56.4959511 C665.654892,57.2975079 665.063742,57.9589725 664.29967,58.0559933 L664.105291,58.0682437 L644.549601,58.0682437 C643.69378,58.0682437 643,57.3643043 643,56.4959511 C643,55.6943943 643.59115,55.0329298 644.355223,54.935909 L644.549601,54.9236586 L664.105291,54.9236586 Z" id="Path" fill="#2F2E6B" fill-rule="nonzero"></path>
            <circle id="Oval" fill="#BDB8FF" transform="translate(719.500000, 128.500000) rotate(180.000000) translate(-719.500000, -128.500000) " cx="719.5" cy="128.5" r="30.5"></circle>
            <path d="M705.453868,117.460514 C706.008595,116.897664 706.879263,116.850759 707.486647,117.319801 L707.645335,117.460514 L713.299989,123.197971 C716.086228,126.0249 716.179103,130.546895 713.578635,133.501991 L713.300014,133.801967 L707.645338,139.539483 C707.040183,140.153503 706.05903,140.153506 705.453871,139.53949 C704.899142,138.976641 704.852912,138.093223 705.315183,137.476944 L705.453864,137.315932 L711.105427,131.581584 C712.705369,129.948941 712.778093,127.367043 711.326311,125.659361 L711.108543,125.421551 L705.453868,119.684071 C704.848711,119.070053 704.848711,118.074532 705.453868,117.460514 Z" id="Path" fill="#2F2E6B" fill-rule="nonzero" transform="translate(710.230865, 128.500000) rotate(180.000000) translate(-710.230865, -128.500000) "></path>
            <path d="M733.450399,126.931756 C734.30622,126.931756 735,127.635696 735,128.504049 C735,129.305606 734.40885,129.96707 733.644777,130.064091 L733.450399,130.076341 L713.894709,130.076341 C713.038888,130.076341 712.345108,129.372402 712.345108,128.504049 C712.345108,127.702492 712.936258,127.041028 713.70033,126.944007 L713.894709,126.931756 L733.450399,126.931756 Z" id="Path" fill="#2F2E6B" fill-rule="nonzero" transform="translate(723.672554, 128.504049) rotate(180.000000) translate(-723.672554, -128.504049) "></path>
            <circle id="Oval" fill="#BDB8FF" transform="translate(658.500000, 128.500000) rotate(180.000000) translate(-658.500000, -128.500000) " cx="658.5" cy="128.5" r="30.5"></circle>
            <path d="M644.453868,117.460514 C645.008595,116.897664 645.879263,116.850759 646.486647,117.319801 L646.645335,117.460514 L652.299989,123.197971 C655.086228,126.0249 655.179103,130.546895 652.578635,133.501991 L652.300014,133.801967 L646.645338,139.539483 C646.040183,140.153503 645.05903,140.153506 644.453871,139.53949 C643.899142,138.976641 643.852912,138.093223 644.315183,137.476944 L644.453864,137.315932 L650.105427,131.581584 C651.705369,129.948941 651.778093,127.367043 650.326311,125.659361 L650.108543,125.421551 L644.453868,119.684071 C643.848711,119.070053 643.848711,118.074532 644.453868,117.460514 Z" id="Path" fill="#2F2E6B" fill-rule="nonzero" transform="translate(649.230865, 128.500000) rotate(180.000000) translate(-649.230865, -128.500000) "></path>
            <path d="M672.450399,126.931756 C673.30622,126.931756 674,127.635696 674,128.504049 C674,129.305606 673.40885,129.96707 672.644777,130.064091 L672.450399,130.076341 L652.894709,130.076341 C652.038888,130.076341 651.345108,129.372402 651.345108,128.504049 C651.345108,127.702492 651.936258,127.041028 652.70033,126.944007 L652.894709,126.931756 L672.450399,126.931756 Z" id="Path" fill="#2F2E6B" fill-rule="nonzero" transform="translate(662.672554, 128.504049) rotate(180.000000) translate(-662.672554, -128.504049) "></path>
            <circle id="Oval" fill="#BDB8FF" transform="translate(489.000000, 234.000000) rotate(90.000000) translate(-489.000000, -234.000000) " cx="489" cy="234" r="30.5"></circle>
            <path d="M484.223003,232.229649 C484.77773,231.666799 485.648399,231.619895 486.255783,232.088936 L486.41447,232.229649 L492.069124,237.967107 C494.855364,240.794036 494.948238,245.31603 492.347771,248.271126 L492.069149,248.571103 L486.414473,254.308618 C485.809318,254.922638 484.828165,254.922641 484.223006,254.308625 C483.668277,253.745776 483.622047,252.862359 484.084318,252.246079 L484.222999,252.085067 L489.874562,246.35072 C491.474504,244.718076 491.547229,242.136179 490.095446,240.428496 L489.877679,240.190686 L484.223003,234.453207 C483.617846,233.839188 483.617846,232.843667 484.223003,232.229649 Z" id="Path" fill="#2F2E6B" fill-rule="nonzero" transform="translate(489.000000, 243.269135) rotate(90.000000) translate(-489.000000, -243.269135) "></path>
            <path d="M498.781894,228.255153 C499.637715,228.255153 500.331495,228.959093 500.331495,229.827446 C500.331495,230.629003 499.740345,231.290467 498.976272,231.387488 L498.781894,231.399739 L479.226204,231.399739 C478.370383,231.399739 477.676603,230.695799 477.676603,229.827446 C477.676603,229.025889 478.267753,228.364425 479.031825,228.267404 L479.226204,228.255153 L498.781894,228.255153 Z" id="Path" fill="#2F2E6B" fill-rule="nonzero" transform="translate(489.004049, 229.827446) rotate(90.000000) translate(-489.004049, -229.827446) "></path>
            <circle id="Oval" fill="#BDB8FF" transform="translate(489.000000, 295.000000) rotate(90.000000) translate(-489.000000, -295.000000) " cx="489" cy="295" r="30.5"></circle>
            <path d="M484.223003,293.229649 C484.77773,292.666799 485.648399,292.619895 486.255783,293.088936 L486.41447,293.229649 L492.069124,298.967107 C494.855364,301.794036 494.948238,306.31603 492.347771,309.271126 L492.069149,309.571103 L486.414473,315.308618 C485.809318,315.922638 484.828165,315.922641 484.223006,315.308625 C483.668277,314.745776 483.622047,313.862359 484.084318,313.246079 L484.222999,313.085067 L489.874562,307.35072 C491.474504,305.718076 491.547229,303.136179 490.095446,301.428496 L489.877679,301.190686 L484.223003,295.453207 C483.617846,294.839188 483.617846,293.843667 484.223003,293.229649 Z" id="Path" fill="#2F2E6B" fill-rule="nonzero" transform="translate(489.000000, 304.269135) rotate(90.000000) translate(-489.000000, -304.269135) "></path>
            <path d="M498.781894,289.255153 C499.637715,289.255153 500.331495,289.959093 500.331495,290.827446 C500.331495,291.629003 499.740345,292.290467 498.976272,292.387488 L498.781894,292.399739 L479.226204,292.399739 C478.370383,292.399739 477.676603,291.695799 477.676603,290.827446 C477.676603,290.025889 478.267753,289.364425 479.031825,289.267404 L479.226204,289.255153 L498.781894,289.255153 Z" id="Path" fill="#2F2E6B" fill-rule="nonzero" transform="translate(489.004049, 290.827446) rotate(90.000000) translate(-489.004049, -290.827446) "></path>
            <path d="M442.04643,81 L442.04643,60.6903797 L439.489975,60.6903797 L439.489975,81 L442.04643,81 Z M447.841063,81 L447.841063,71.9671899 C447.841063,69.7231899 449.545367,68.1041013 452.101823,68.1041013 C454.374228,68.1041013 455.254785,69.5811646 455.254785,71.4558987 L455.254785,81 L457.52719,81 L457.52719,70.8877975 C457.52719,67.5644051 455.311595,66.1157468 452.669924,66.1157468 C450.198684,66.1157468 448.66481,67.2235443 447.897873,68.2461266 L447.841063,68.2461266 L447.841063,66.5134177 L445.568658,66.5134177 L445.568658,81 L447.841063,81 Z M466.844051,81 L472.042177,66.5134177 L469.570937,66.5134177 L465.565823,78.7275949 L465.537418,78.7275949 L461.532304,66.5134177 L459.061063,66.5134177 L464.25919,81 L466.844051,81 Z M477.552759,81.3976709 C479.938785,81.3976709 481.557873,80.545519 482.466835,79.1820759 L482.523646,79.1820759 C482.921316,80.7727595 483.745063,81.1420253 485.108506,81.1420253 C485.534582,81.1420253 485.847038,81.1136203 486.443544,80.9147848 L486.443544,79.3241013 C484.994886,79.4945316 484.796051,78.8696203 484.796051,77.7334177 L484.796051,70.688962 C484.796051,67.1951392 482.32481,66.1157468 479.569519,66.1157468 C475.36557,66.1157468 473.632861,68.2177215 473.490835,71.0014177 L475.763241,71.0014177 C475.905266,68.899443 476.814228,68.1041013 479.569519,68.1041013 C481.898734,68.1041013 482.523646,69.0698734 482.523646,70.2060759 C482.523646,71.6547342 481.415848,71.9671899 478.973013,72.4216709 C475.223544,73.1317975 472.780709,73.9839494 472.780709,77.2789367 C472.780709,79.7217722 474.627038,81.3976709 477.552759,81.3976709 Z M477.78,79.4093165 C475.905266,79.4093165 475.053114,78.5855696 475.053114,77.1653165 C475.053114,75.4326076 476.359747,74.722481 479.171848,74.1259747 C480.705722,73.813519 482.09757,73.4158481 482.523646,72.9897722 L482.523646,75.4042025 C482.523646,78.1878987 480.478481,79.4093165 477.78,79.4093165 Z M490.420253,81 L490.420253,73.2738228 C490.420253,70.1776709 492.607443,67.9620759 495.760405,68.4733671 L495.817215,68.4733671 L495.817215,66.200962 C495.419544,66.1441519 495.021873,66.1157468 494.482177,66.1157468 C492.408608,66.1157468 491.244,67.4791899 490.477063,69.3823291 L490.420253,69.3823291 L490.420253,66.5134177 L488.147848,66.5134177 L488.147848,81 L490.420253,81 Z M499.311038,63.7013165 C499.964354,63.7013165 500.731291,63.2184304 500.731291,62.3378734 C500.731291,61.4573165 499.964354,60.9744304 499.311038,60.9744304 C498.686127,60.9744304 497.890785,61.4573165 497.890785,62.3378734 C497.890785,63.2184304 498.686127,63.7013165 499.311038,63.7013165 Z M500.447241,81 L500.447241,66.5134177 L498.174835,66.5134177 L498.174835,81 L500.447241,81 Z M507.747342,81.3976709 C510.133367,81.3976709 511.752456,80.545519 512.661418,79.1820759 L512.718228,79.1820759 C513.115899,80.7727595 513.939646,81.1420253 515.303089,81.1420253 C515.729165,81.1420253 516.04162,81.1136203 516.638127,80.9147848 L516.638127,79.3241013 C515.189468,79.4945316 514.990633,78.8696203 514.990633,77.7334177 L514.990633,70.688962 C514.990633,67.1951392 512.519392,66.1157468 509.764101,66.1157468 C505.560152,66.1157468 503.827443,68.2177215 503.685418,71.0014177 L505.957823,71.0014177 C506.099848,68.899443 507.00881,68.1041013 509.764101,68.1041013 C512.093316,68.1041013 512.718228,69.0698734 512.718228,70.2060759 C512.718228,71.6547342 511.61043,71.9671899 509.167595,72.4216709 C505.418127,73.1317975 502.975291,73.9839494 502.975291,77.2789367 C502.975291,79.7217722 504.82162,81.3976709 507.747342,81.3976709 Z M507.974582,79.4093165 C506.099848,79.4093165 505.247696,78.5855696 505.247696,77.1653165 C505.247696,75.4326076 506.554329,74.722481 509.36643,74.1259747 C510.900304,73.813519 512.292152,73.4158481 512.718228,72.9897722 L512.718228,75.4042025 C512.718228,78.1878987 510.673063,79.4093165 507.974582,79.4093165 Z M520.614835,81 L520.614835,71.9671899 C520.614835,69.7231899 522.319139,68.1041013 524.875595,68.1041013 C527.148,68.1041013 528.028557,69.5811646 528.028557,71.4558987 L528.028557,81 L530.300962,81 L530.300962,70.8877975 C530.300962,67.5644051 528.085367,66.1157468 525.443696,66.1157468 C522.972456,66.1157468 521.438582,67.2235443 520.671646,68.2461266 L520.614835,68.2461266 L520.614835,66.5134177 L518.34243,66.5134177 L518.34243,81 L520.614835,81 Z M537.941924,81.1704304 C538.53843,81.1704304 539.134937,81.1136203 539.646228,81 L539.646228,79.0116456 C537.714684,79.1536709 536.805722,78.8696203 536.805722,77.2221266 L536.805722,68.5017722 L539.646228,68.5017722 L539.646228,66.5134177 L536.805722,66.5134177 L536.805722,61.684557 L534.533316,61.684557 L534.533316,66.5134177 L532.402937,66.5134177 L532.402937,68.5017722 L534.533316,68.5017722 L534.533316,77.4493671 C534.533316,80.4034937 536.01038,81.1704304 537.941924,81.1704304 Z M444.972152,116.36254 C448.096709,116.36254 449.999848,115.226337 451.533722,113.095958 L451.590532,113.095958 L452.442684,115.964869 L454.146987,115.964869 L454.146987,105.398185 L444.972152,105.398185 L444.972152,107.67059 L451.590532,107.67059 C451.590532,111.476869 448.608,114.090135 444.972152,114.090135 C439.859241,114.090135 438.382177,109.63054 438.382177,105.795856 C438.382177,101.989578 440.427342,97.5299829 445.256203,97.5299829 C448.323949,97.5299829 450.653165,98.8934259 451.249671,101.790742 L453.806127,101.790742 C453.096,97.9276538 450.397519,95.2575778 445.256203,95.2575778 C439.632,95.2575778 435.825722,99.6887677 435.825722,105.795856 C435.825722,111.93135 439.063899,116.36254 444.972152,116.36254 Z M461.219848,116.36254 C463.605873,116.36254 465.224962,115.510388 466.133924,114.146945 L466.190734,114.146945 C466.588405,115.737628 467.412152,116.106894 468.775595,116.106894 C469.201671,116.106894 469.514127,116.078489 470.110633,115.879654 L470.110633,114.28897 C468.661975,114.459401 468.463139,113.834489 468.463139,112.698287 L468.463139,105.653831 C468.463139,102.160008 465.991899,101.080616 463.236608,101.080616 C459.032658,101.080616 457.299949,103.18259 457.157924,105.966287 L459.430329,105.966287 C459.572354,103.864312 460.481316,103.06897 463.236608,103.06897 C465.565823,103.06897 466.190734,104.034742 466.190734,105.170945 C466.190734,106.619603 465.082937,106.932059 462.640101,107.38654 C458.890633,108.096666 456.447797,108.948818 456.447797,112.243806 C456.447797,114.686641 458.294127,116.36254 461.219848,116.36254 Z M461.447089,114.374185 C459.572354,114.374185 458.720203,113.550439 458.720203,112.130185 C458.720203,110.397477 460.026835,109.68735 462.838937,109.090844 C464.37281,108.778388 465.764658,108.380717 466.190734,107.954641 L466.190734,110.369071 C466.190734,113.152768 464.14557,114.374185 461.447089,114.374185 Z M476.416557,116.135299 C477.013063,116.135299 477.60957,116.078489 478.120861,115.964869 L478.120861,113.976515 C476.189316,114.11854 475.280354,113.834489 475.280354,112.186996 L475.280354,103.466641 L478.120861,103.466641 L478.120861,101.478287 L475.280354,101.478287 L475.280354,96.6494259 L473.007949,96.6494259 L473.007949,101.478287 L470.87757,101.478287 L470.87757,103.466641 L473.007949,103.466641 L473.007949,112.414236 C473.007949,115.368363 474.485013,116.135299 476.416557,116.135299 Z M486.756,116.36254 C490.363443,116.36254 492.437013,114.203755 493.175544,111.505274 L490.903139,111.505274 C490.647494,112.499451 489.568101,114.374185 486.670785,114.374185 C483.517823,114.374185 481.955544,111.93135 481.955544,109.318084 L493.402785,109.318084 C493.402785,104.176768 491.18719,101.080616 486.64238,101.080616 C482.410025,101.080616 479.683139,103.892717 479.683139,108.721578 C479.683139,113.266388 482.353215,116.36254 486.756,116.36254 Z M491.13038,107.32973 L481.955544,107.32973 C481.955544,105.000515 483.915494,103.06897 486.64238,103.06897 C489.369266,103.06897 491.13038,105.000515 491.13038,107.32973 Z M501.242582,115.964869 L504.452354,104.006337 L504.509165,104.006337 L507.775747,115.964869 L510.190177,115.964869 L514.820203,101.478287 L512.320557,101.478287 L509.02557,113.493628 L508.968759,113.493628 L505.702177,101.478287 L503.287747,101.478287 L500.04957,113.493628 L499.992759,113.493628 L496.697772,101.478287 L494.198127,101.478287 L498.828152,115.964869 L501.242582,115.964869 Z M520.387595,116.36254 C522.77362,116.36254 524.392709,115.510388 525.301671,114.146945 L525.358481,114.146945 C525.756152,115.737628 526.579899,116.106894 527.943342,116.106894 C528.369418,116.106894 528.681873,116.078489 529.27838,115.879654 L529.27838,114.28897 C527.829722,114.459401 527.630886,113.834489 527.630886,112.698287 L527.630886,105.653831 C527.630886,102.160008 525.159646,101.080616 522.404354,101.080616 C518.200405,101.080616 516.467696,103.18259 516.325671,105.966287 L518.598076,105.966287 C518.740101,103.864312 519.649063,103.06897 522.404354,103.06897 C524.73357,103.06897 525.358481,104.034742 525.358481,105.170945 C525.358481,106.619603 524.250684,106.932059 521.807848,107.38654 C518.05838,108.096666 515.615544,108.948818 515.615544,112.243806 C515.615544,114.686641 517.461873,116.36254 520.387595,116.36254 Z M520.614835,114.374185 C518.740101,114.374185 517.887949,113.550439 517.887949,112.130185 C517.887949,110.397477 519.194582,109.68735 522.006684,109.090844 C523.540557,108.778388 524.932405,108.380717 525.358481,107.954641 L525.358481,110.369071 C525.358481,113.152768 523.313316,114.374185 520.614835,114.374185 Z M533.027848,120.85054 C535.697924,120.85054 536.436456,118.72016 537.061367,117.157882 L543.253671,101.478287 L540.697215,101.478287 L536.521671,113.294793 L536.464861,113.294793 L532.033671,101.478287 L529.477215,101.478287 L534.959392,114.771856 C535.527494,116.192109 534.930987,117.413527 534.334481,118.066844 C533.567544,118.89059 532.686987,118.975806 531.437165,118.862185 L531.096304,118.862185 L531.096304,120.566489 C531.46557,120.680109 532.118886,120.85054 533.027848,120.85054 Z" id="InvariantGateway" fill="#FFFFFF" fill-rule="nonzero"></path>
            <path d="M544.210443,251 L545.219937,248.058544 L550.302215,248.058544 L551.311709,251 L553.417721,251 L548.857595,238.55538 L546.681962,238.55538 L542.10443,251 L544.210443,251 Z M549.745253,246.335443 L545.794304,246.335443 L547.761076,240.452532 L547.795886,240.452532 L549.745253,246.335443 Z M558.325949,254.080696 C560.849683,254.080696 562.398734,252.949367 562.398734,250.390823 L562.398734,242.106013 L560.571202,242.106013 L560.571202,243.150317 L560.536392,243.150317 C560.066455,242.523734 559.248417,241.862342 557.838607,241.862342 C555.610759,241.862342 553.939873,243.393987 553.939873,246.213608 C553.939873,249.015823 555.610759,250.564873 557.838607,250.564873 C559.248417,250.564873 560.066455,249.903481 560.536392,249.242089 L560.571202,249.242089 L560.571202,250.321203 C560.571202,251.922468 559.787974,252.618671 558.256329,252.618671 C556.811709,252.618671 556.185126,252.026899 556.011076,251.243671 L554.166139,251.243671 C554.357595,252.740506 555.767405,254.080696 558.325949,254.080696 Z M558.186709,249.068038 C556.585443,249.068038 555.767405,247.849684 555.767405,246.213608 C555.767405,244.560127 556.585443,243.359177 558.186709,243.359177 C559.666139,243.359177 560.553797,244.333861 560.553797,246.213608 C560.553797,248.093354 559.666139,249.068038 558.186709,249.068038 Z M568.125,251.261076 C570.405063,251.261076 571.727848,249.973101 572.180379,248.28481 L570.352848,248.28481 C570.196202,248.824367 569.587025,249.764241 568.072784,249.764241 C566.454114,249.764241 565.496835,248.528481 565.496835,247.031646 L572.31962,247.031646 C572.31962,243.863924 570.90981,241.862342 568.037974,241.862342 C565.357595,241.862342 563.669303,243.672468 563.669303,246.561709 C563.669303,249.346519 565.357595,251.261076 568.125,251.261076 Z M570.492088,245.674051 L565.496835,245.674051 C565.496835,244.299051 566.558544,243.306962 568.037974,243.306962 C569.517405,243.306962 570.492088,244.299051 570.492088,245.674051 Z M575.400316,251 L575.400316,245.587025 C575.400316,244.264241 576.305379,243.411393 577.715189,243.411393 C578.968354,243.411393 579.473101,244.177215 579.473101,245.378165 L579.473101,251 L581.318037,251 L581.318037,244.856013 C581.318037,242.81962 580.012658,241.862342 578.359177,241.862342 C576.827531,241.862342 575.905063,242.558544 575.435126,243.254747 L575.400316,243.254747 L575.400316,242.106013 L573.572784,242.106013 L573.572784,251 L575.400316,251 Z M585.982594,251.121835 C586.469936,251.121835 586.870252,251.06962 587.235759,250.982595 L587.235759,249.48576 C586.052214,249.55538 585.564873,249.433544 585.564873,248.424051 L585.564873,243.602848 L587.235759,243.602848 L587.235759,242.106013 L585.564873,242.106013 L585.564873,239.303798 L583.719936,239.303798 L583.719936,242.106013 L582.431961,242.106013 L582.431961,243.602848 L583.719936,243.602848 L583.719936,248.580696 C583.719936,250.460443 584.520569,251.121835 585.982594,251.121835 Z M597.400316,251 L597.400316,240.313291 L601.36867,240.313291 L601.36867,238.55538 L591.343354,238.55538 L591.343354,240.313291 L595.329113,240.313291 L595.329113,251 L597.400316,251 Z M604.414556,251 L604.414556,246.457279 C604.414556,244.560127 605.824366,243.376582 607.582277,243.672468 L607.617088,243.672468 L607.617088,241.949367 C607.356012,241.914557 607.129746,241.897152 606.816455,241.897152 C605.650315,241.897152 604.919303,242.662975 604.449366,243.776899 L604.414556,243.776899 L604.414556,242.106013 L602.587024,242.106013 L602.587024,251 L604.414556,251 Z M611.20253,251.261076 C612.57753,251.261076 613.587024,250.721519 614.143986,249.938291 L614.178796,249.938291 C614.352847,250.808544 614.805379,251.156646 615.780062,251.156646 C616.128163,251.156646 616.424049,251.121835 616.841771,250.96519 L616.841771,250.094937 C616.128163,250.164557 615.988923,249.833861 615.988923,249.207279 L615.988923,244.977848 C615.988923,242.61076 614.526898,241.862342 612.560125,241.862342 C609.879746,241.862342 608.783227,243.202532 608.696201,244.908228 L610.471518,244.908228 C610.558543,243.759494 611.0981,243.306962 612.560125,243.306962 C613.77848,243.306962 614.161391,243.794304 614.161391,244.438291 C614.161391,245.291139 613.325948,245.46519 611.950948,245.726266 C609.7231,246.161392 608.27848,246.77057 608.27848,248.719937 C608.27848,250.216772 609.392404,251.261076 611.20253,251.261076 Z M611.602847,249.816456 C610.610758,249.816456 610.123417,249.363924 610.123417,248.545886 C610.123417,247.640823 610.784809,247.205696 612.299049,246.875 C613.151898,246.700949 613.865505,246.492089 614.161391,246.283228 L614.161391,247.623418 C614.161391,249.068038 613.117087,249.816456 611.602847,249.816456 Z M621.819619,251.261076 C624.134492,251.261076 625.718353,249.746835 625.857594,247.693038 L624.030062,247.693038 C623.960442,248.685127 623.386075,249.764241 621.819619,249.764241 C620.009492,249.764241 619.261075,248.232595 619.261075,246.561709 C619.261075,244.890823 620.026897,243.359177 621.819619,243.359177 C623.386075,243.359177 623.960442,244.455696 624.030062,245.36076 L625.857594,245.36076 C625.631328,243.341772 624.117087,241.862342 621.802214,241.862342 C619.156644,241.862342 617.433543,243.776899 617.433543,246.561709 C617.433543,249.346519 619.156644,251.261076 621.819619,251.261076 Z M631.044302,251.261076 C633.324366,251.261076 634.64715,249.973101 635.099682,248.28481 L633.27215,248.28481 C633.115505,248.824367 632.506328,249.764241 630.992087,249.764241 C629.373416,249.764241 628.416138,248.528481 628.416138,247.031646 L635.238922,247.031646 C635.238922,243.863924 633.829112,241.862342 630.957277,241.862342 C628.276897,241.862342 626.588606,243.672468 626.588606,246.561709 C626.588606,249.346519 628.276897,251.261076 631.044302,251.261076 Z M633.411391,245.674051 L628.416138,245.674051 C628.416138,244.299051 629.477847,243.306962 630.957277,243.306962 C632.436707,243.306962 633.411391,244.299051 633.411391,245.674051 Z" id="AgentTrace" fill="#4A4A4A" fill-rule="nonzero"></path>
            <path d="M545.555988,268.149951 C547.494645,268.149951 548.319377,267.111003 548.319377,265.997079 C548.319377,264.251217 547.194742,263.962025 545.470302,263.533593 C544.345667,263.255112 543.520935,263.115872 543.520935,262.098345 C543.520935,261.466407 544.099318,261.048686 545.18111,261.048686 C546.391431,261.048686 546.969815,261.584226 547.109055,262.612464 L548.073028,262.612464 C547.944498,261.027264 546.809153,260.191821 545.18111,260.191821 C543.488802,260.191821 542.556962,260.995132 542.556962,262.205453 C542.556962,263.694255 543.927945,264.090555 545.074002,264.358325 C546.787731,264.754625 547.355404,264.94742 547.355404,265.997079 C547.355404,266.682571 546.884128,267.293087 545.555988,267.293087 C543.949367,267.293087 543.306719,266.479065 543.19961,265.429406 L542.235638,265.429406 C542.342746,267.185979 543.745862,268.149951 545.555988,268.149951 Z M551.650438,268.149951 C553.010711,268.149951 553.7926,267.33593 554.071081,266.318403 L553.214216,266.318403 C553.117819,266.693281 552.710808,267.400195 551.618306,267.400195 C550.429406,267.400195 549.840311,266.479065 549.840311,265.493671 L554.156767,265.493671 C554.156767,263.555015 553.321324,262.387537 551.607595,262.387537 C550.011684,262.387537 548.983447,263.447907 548.983447,265.268744 C548.983447,266.982473 549.990263,268.149951 551.650438,268.149951 Z M553.299902,264.743914 L549.840311,264.743914 C549.840311,263.865628 550.579357,263.137293 551.607595,263.137293 C552.635832,263.137293 553.299902,263.865628 553.299902,264.743914 Z M557.337877,268.149951 C558.687439,268.149951 559.662122,267.228822 559.737098,265.986368 L558.880233,265.986368 C558.83739,266.639727 558.44109,267.400195 557.337877,267.400195 C556.041869,267.400195 555.549172,266.296982 555.549172,265.268744 C555.549172,264.240506 556.041869,263.137293 557.337877,263.137293 C558.430379,263.137293 558.83739,263.908471 558.880233,264.508277 L559.737098,264.508277 C559.608568,263.287244 558.687439,262.387537 557.337877,262.387537 C555.741967,262.387537 554.692307,263.555015 554.692307,265.268744 C554.692307,266.982473 555.741967,268.149951 557.337877,268.149951 Z M562.361246,268.149951 C563.293086,268.149951 563.87147,267.73223 564.160662,267.346641 L564.182083,267.346641 L564.182083,268 L565.038948,268 L565.038948,262.537488 L564.182083,262.537488 L564.182083,265.943525 C564.182083,266.789679 563.539435,267.400195 562.575462,267.400195 C561.718598,267.400195 561.386562,266.843233 561.386562,266.136319 L561.386562,262.537488 L560.529698,262.537488 L560.529698,266.350536 C560.529698,267.6037 561.365141,268.149951 562.361246,268.149951 Z M567.074002,268 L567.074002,265.08666 C567.074002,263.919182 567.898734,263.083739 569.087633,263.276534 L569.109055,263.276534 L569.109055,262.419669 C568.959104,262.398247 568.809152,262.387537 568.605647,262.387537 C567.823758,262.387537 567.384615,262.901655 567.095423,263.61928 L567.074002,263.61928 L567.074002,262.537488 L566.217137,262.537488 L566.217137,268 L567.074002,268 Z M570.426484,261.477118 C570.672833,261.477118 570.962025,261.295034 570.962025,260.962999 C570.962025,260.630964 570.672833,260.44888 570.426484,260.44888 C570.190847,260.44888 569.890944,260.630964 569.890944,260.962999 C569.890944,261.295034 570.190847,261.477118 570.426484,261.477118 Z M570.854917,268 L570.854917,262.537488 L569.998052,262.537488 L569.998052,268 L570.854917,268 Z M573.875365,268.064265 C574.100292,268.064265 574.325219,268.042843 574.518013,268 L574.518013,267.250243 C573.789678,267.303797 573.446932,267.196689 573.446932,266.575463 L573.446932,263.287244 L574.518013,263.287244 L574.518013,262.537488 L573.446932,262.537488 L573.446932,260.716651 L572.590068,260.716651 L572.590068,262.537488 L571.786757,262.537488 L571.786757,263.287244 L572.590068,263.287244 L572.590068,266.661149 C572.590068,267.775073 573.14703,268.064265 573.875365,268.064265 Z M576.188899,269.842259 C577.195715,269.842259 577.474196,269.038948 577.709834,268.449854 L580.04479,262.537488 L579.080817,262.537488 L577.506329,266.993184 L577.484907,266.993184 L575.814021,262.537488 L574.850048,262.537488 L576.917234,267.550146 C577.13145,268.085686 576.906523,268.546251 576.681596,268.7926 C576.392404,269.103213 576.060369,269.135346 575.589094,269.092502 L575.460564,269.092502 L575.460564,269.735151 C575.599805,269.777994 575.846153,269.842259 576.188899,269.842259 Z M585.764361,268.149951 C587.703018,268.149951 588.52775,267.111003 588.52775,265.997079 C588.52775,264.251217 587.403115,263.962025 585.678675,263.533593 C584.55404,263.255112 583.729308,263.115872 583.729308,262.098345 C583.729308,261.466407 584.307692,261.048686 585.389483,261.048686 C586.599805,261.048686 587.178188,261.584226 587.317429,262.612464 L588.281401,262.612464 C588.152872,261.027264 587.017526,260.191821 585.389483,260.191821 C583.697176,260.191821 582.765335,260.995132 582.765335,262.205453 C582.765335,263.694255 584.136319,264.090555 585.282375,264.358325 C586.996104,264.754625 587.563777,264.94742 587.563777,265.997079 C587.563777,266.682571 587.092502,267.293087 585.764361,267.293087 C584.15774,267.293087 583.515092,266.479065 583.407984,265.429406 L582.444011,265.429406 C582.551119,267.185979 583.954235,268.149951 585.764361,268.149951 Z M591.83739,268.149951 C593.186951,268.149951 594.161635,267.228822 594.236611,265.986368 L593.379746,265.986368 C593.336903,266.639727 592.940603,267.400195 591.83739,267.400195 C590.541382,267.400195 590.048685,266.296982 590.048685,265.268744 C590.048685,264.240506 590.541382,263.137293 591.83739,263.137293 C592.929892,263.137293 593.336903,263.908471 593.379746,264.508277 L594.236611,264.508277 C594.108081,263.287244 593.186951,262.387537 591.83739,262.387537 C590.241479,262.387537 589.19182,263.555015 589.19182,265.268744 C589.19182,266.982473 590.241479,268.149951 591.83739,268.149951 Z M596.528724,268.149951 C597.428431,268.149951 598.038947,267.828627 598.381693,267.314508 L598.403115,267.314508 C598.553066,267.914314 598.86368,268.053554 599.377798,268.053554 C599.538461,268.053554 599.656279,268.042843 599.881206,267.967868 L599.881206,267.368062 C599.334955,267.432327 599.25998,267.196689 599.25998,266.768257 L599.25998,264.111977 C599.25998,262.794547 598.328139,262.387537 597.289191,262.387537 C595.703991,262.387537 595.050632,263.180136 594.997078,264.229796 L595.853943,264.229796 C595.907497,263.437196 596.250243,263.137293 597.289191,263.137293 C598.167477,263.137293 598.403115,263.501461 598.403115,263.929893 C598.403115,264.476144 597.985393,264.593963 597.064264,264.765336 C595.650437,265.033106 594.729308,265.35443 594.729308,266.596884 C594.729308,267.518014 595.42551,268.149951 596.528724,268.149951 Z M596.61441,267.400195 C595.907497,267.400195 595.586172,267.089581 595.586172,266.554041 C595.586172,265.900682 596.07887,265.632911 597.13924,265.407984 C597.717623,265.290166 598.242453,265.140214 598.403115,264.979552 L598.403115,265.889971 C598.403115,266.93963 597.631937,267.400195 596.61441,267.400195 Z M601.38072,268 L601.38072,264.593963 C601.38072,263.747809 602.023368,263.137293 602.987341,263.137293 C603.844205,263.137293 604.17624,263.694255 604.17624,264.401169 L604.17624,268 L605.033105,268 L605.033105,264.186952 C605.033105,262.933788 604.197662,262.387537 603.201557,262.387537 C602.269717,262.387537 601.691333,262.805258 601.402141,263.190847 L601.38072,263.190847 L601.38072,262.537488 L600.523855,262.537488 L600.523855,268 L601.38072,268 Z M608.321323,268.149951 C609.563777,268.149951 610.474196,267.496592 610.474196,266.500487 C610.474196,265.150925 609.370982,264.990263 608.396299,264.754625 C607.635831,264.572541 606.896786,264.518987 606.896786,263.876339 C606.896786,263.447907 607.314507,263.137293 608.085685,263.137293 C609.113923,263.137293 609.317428,263.683544 609.403115,264.101266 L610.259979,264.101266 C610.174293,263.158715 609.445958,262.387537 608.085685,262.387537 C606.800388,262.387537 606.039921,263.083739 606.039921,263.940604 C606.039921,265.225901 607.282375,265.322298 608.117818,265.525803 C608.899707,265.718598 609.617331,265.761441 609.617331,266.554041 C609.617331,266.918208 609.253163,267.400195 608.321323,267.400195 C606.95034,267.400195 606.736124,266.789679 606.68257,266.179163 L605.825705,266.179163 C605.879259,267.357352 606.650437,268.149951 608.321323,268.149951 Z M545.491723,280.593766 C547.601753,280.593766 548.89776,279.233493 548.89776,276.770007 C548.89776,274.306521 547.601753,272.935538 545.491723,272.935538 L542.717624,272.935538 L542.717624,280.593766 L545.491723,280.593766 Z M545.491723,279.736901 L543.681597,279.736901 L543.681597,273.792402 L545.491723,273.792402 C547.44109,273.792402 547.933788,275.270494 547.933788,276.770007 C547.933788,278.26952 547.44109,279.736901 545.491723,279.736901 Z M552.271665,280.743717 C553.631937,280.743717 554.413826,279.929695 554.692307,278.912169 L553.835443,278.912169 C553.739046,279.287047 553.332035,279.99396 552.239532,279.99396 C551.050633,279.99396 550.461538,279.072831 550.461538,278.087436 L554.777994,278.087436 C554.777994,276.14878 553.942551,274.981302 552.228822,274.981302 C550.632911,274.981302 549.604674,276.041672 549.604674,277.862509 C549.604674,279.576239 550.61149,280.743717 552.271665,280.743717 Z M553.921129,277.33768 L550.461538,277.33768 C550.461538,276.459394 551.200584,275.731059 552.228822,275.731059 C553.257059,275.731059 553.921129,276.459394 553.921129,277.33768 Z M558.216163,280.743717 C559.587147,280.743717 560.679649,279.661925 560.679649,277.862509 C560.679649,276.063094 559.587147,274.981302 558.216163,274.981302 C557.337877,274.981302 556.823758,275.366891 556.502434,275.838167 L556.481012,275.838167 L556.481012,272.935538 L555.624148,272.935538 L555.624148,280.593766 L556.481012,280.593766 L556.481012,279.918985 L556.502434,279.918985 C556.823758,280.336706 557.337877,280.743717 558.216163,280.743717 Z M558.130477,279.99396 C557.11295,279.99396 556.481012,279.147806 556.481012,277.862509 C556.481012,276.577213 557.11295,275.731059 558.130477,275.731059 C559.255112,275.731059 559.822785,276.791429 559.822785,277.862509 C559.822785,278.93359 559.255112,279.99396 558.130477,279.99396 Z M563.34664,280.743717 C564.278481,280.743717 564.856864,280.325995 565.146056,279.940406 L565.167478,279.940406 L565.167478,280.593766 L566.024342,280.593766 L566.024342,275.131253 L565.167478,275.131253 L565.167478,278.53729 C565.167478,279.383444 564.524829,279.99396 563.560857,279.99396 C562.703992,279.99396 562.371957,279.436998 562.371957,278.730085 L562.371957,275.131253 L561.515092,275.131253 L561.515092,278.944301 C561.515092,280.197466 562.350535,280.743717 563.34664,280.743717 Z M569.526777,282.489579 C571.02629,282.489579 571.947419,281.750533 571.947419,280.293863 L571.947419,275.131253 L571.090555,275.131253 L571.090555,275.806034 L571.069133,275.806034 C570.747809,275.388313 570.23369,274.981302 569.333982,274.981302 C567.98442,274.981302 566.891918,275.848878 566.891918,277.648293 C566.891918,279.447709 567.98442,280.315284 569.333982,280.315284 C570.23369,280.315284 570.747809,279.929695 571.069133,279.45842 L571.090555,279.45842 L571.090555,280.283152 C571.090555,281.300679 570.50146,281.739822 569.483933,281.739822 C568.466407,281.739822 568.016553,281.3221 567.909445,280.765138 L567.05258,280.765138 C567.138266,281.696979 568.027263,282.489579 569.526777,282.489579 Z M569.44109,279.565528 C568.316455,279.565528 567.748782,278.719374 567.748782,277.648293 C567.748782,276.577213 568.316455,275.731059 569.44109,275.731059 C570.458617,275.731059 571.090555,276.362996 571.090555,277.648293 C571.090555,278.93359 570.458617,279.565528 569.44109,279.565528 Z M575.449853,282.489579 C576.949367,282.489579 577.870496,281.750533 577.870496,280.293863 L577.870496,275.131253 L577.013631,275.131253 L577.013631,275.806034 L576.99221,275.806034 C576.670885,275.388313 576.156767,274.981302 575.257059,274.981302 C573.907497,274.981302 572.814995,275.848878 572.814995,277.648293 C572.814995,279.447709 573.907497,280.315284 575.257059,280.315284 C576.156767,280.315284 576.670885,279.929695 576.99221,279.45842 L577.013631,279.45842 L577.013631,280.283152 C577.013631,281.300679 576.424537,281.739822 575.40701,281.739822 C574.389483,281.739822 573.939629,281.3221 573.832521,280.765138 L572.975657,280.765138 C573.061343,281.696979 573.95034,282.489579 575.449853,282.489579 Z M575.364167,279.565528 C574.239532,279.565528 573.671859,278.719374 573.671859,277.648293 C573.671859,276.577213 574.239532,275.731059 575.364167,275.731059 C576.381694,275.731059 577.013631,276.362996 577.013631,277.648293 C577.013631,278.93359 576.381694,279.565528 575.364167,279.565528 Z M579.584225,274.070883 C579.830574,274.070883 580.119766,273.8888 580.119766,273.556765 C580.119766,273.22473 579.830574,273.042646 579.584225,273.042646 C579.348587,273.042646 579.048685,273.22473 579.048685,273.556765 C579.048685,273.8888 579.348587,274.070883 579.584225,274.070883 Z M580.012658,280.593766 L580.012658,275.131253 L579.155793,275.131253 L579.155793,280.593766 L580.012658,280.593766 Z M582.154819,280.593766 L582.154819,277.187729 C582.154819,276.341575 582.797468,275.731059 583.76144,275.731059 C584.618305,275.731059 584.95034,276.288021 584.95034,276.994934 L584.95034,280.593766 L585.807205,280.593766 L585.807205,276.780718 C585.807205,275.527553 584.971762,274.981302 583.975657,274.981302 C583.043816,274.981302 582.465433,275.399024 582.176241,275.784613 L582.154819,275.784613 L582.154819,275.131253 L581.297955,275.131253 L581.297955,280.593766 L582.154819,280.593766 Z M589.277507,282.489579 C590.77702,282.489579 591.698149,281.750533 591.698149,280.293863 L591.698149,275.131253 L590.841284,275.131253 L590.841284,275.806034 L590.819863,275.806034 C590.498539,275.388313 589.98442,274.981302 589.084712,274.981302 C587.73515,274.981302 586.642648,275.848878 586.642648,277.648293 C586.642648,279.447709 587.73515,280.315284 589.084712,280.315284 C589.98442,280.315284 590.498539,279.929695 590.819863,279.45842 L590.841284,279.45842 L590.841284,280.283152 C590.841284,281.300679 590.25219,281.739822 589.234663,281.739822 C588.217137,281.739822 587.767283,281.3221 587.660175,280.765138 L586.80331,280.765138 C586.888996,281.696979 587.777993,282.489579 589.277507,282.489579 Z M589.19182,279.565528 C588.067185,279.565528 587.499512,278.719374 587.499512,277.648293 C587.499512,276.577213 588.067185,275.731059 589.19182,275.731059 C590.209347,275.731059 590.841284,276.362996 590.841284,277.648293 C590.841284,278.93359 590.209347,279.565528 589.19182,279.565528 Z M545.84518,293.187531 L548.522882,285.529303 L547.505355,285.529303 L545.32035,292.223558 L545.30964,292.223558 L543.124635,285.529303 L542.107108,285.529303 L544.78481,293.187531 L545.84518,293.187531 Z M549.754625,286.664649 C550.000974,286.664649 550.290165,286.482565 550.290165,286.15053 C550.290165,285.818495 550.000974,285.636411 549.754625,285.636411 C549.518987,285.636411 549.219085,285.818495 549.219085,286.15053 C549.219085,286.482565 549.518987,286.664649 549.754625,286.664649 Z M550.183057,293.187531 L550.183057,287.725019 L549.326193,287.725019 L549.326193,293.187531 L550.183057,293.187531 Z M553.610516,293.337482 C554.85297,293.337482 555.763388,292.684123 555.763388,291.688018 C555.763388,290.573162 555.010534,290.269636 554.199205,290.064943 L553.941863,290.002757 L553.941863,290.002757 L553.685492,289.942156 L553.685492,289.942156 C552.925024,289.760072 552.185978,289.706518 552.185978,289.06387 C552.185978,288.635438 552.6037,288.324824 553.374878,288.324824 C554.403116,288.324824 554.606621,288.871075 554.692307,289.288797 L555.549172,289.288797 C555.463486,288.346246 554.735151,287.575068 553.374878,287.575068 C552.089581,287.575068 551.329114,288.27127 551.329114,289.128135 C551.329114,290.413432 552.571567,290.509829 553.407011,290.713334 C554.1889,290.906129 554.906524,290.948972 554.906524,291.741572 C554.906524,292.105739 554.542356,292.587726 553.610516,292.587726 C552.239532,292.587726 552.025316,291.97721 551.971762,291.366694 L551.114898,291.366694 C551.168452,292.544883 551.93963,293.337482 553.610516,293.337482 Z M558.398247,293.337482 C559.330087,293.337482 559.908471,292.919761 560.197663,292.534172 L560.219084,292.534172 L560.219084,293.187531 L561.075949,293.187531 L561.075949,287.725019 L560.219084,287.725019 L560.219084,291.131056 C560.219084,291.97721 559.576436,292.587726 558.612463,292.587726 C557.755599,292.587726 557.423564,292.030764 557.423564,291.32385 L557.423564,287.725019 L556.566699,287.725019 L556.566699,291.538067 C556.566699,292.791231 557.402142,293.337482 558.398247,293.337482 Z M563.721519,293.337482 C564.621226,293.337482 565.231743,293.016158 565.574488,292.502039 L565.59591,292.502039 C565.745861,293.101845 566.056475,293.241085 566.570594,293.241085 C566.731256,293.241085 566.849075,293.230374 567.074002,293.155399 L567.074002,292.555593 C566.52775,292.619858 566.452775,292.38422 566.452775,291.955788 L566.452775,289.299508 C566.452775,287.982078 565.520934,287.575068 564.481986,287.575068 C562.896786,287.575068 562.243427,288.367667 562.189873,289.417327 L563.046738,289.417327 C563.100292,288.624727 563.443038,288.324824 564.481986,288.324824 C565.360272,288.324824 565.59591,288.688992 565.59591,289.117424 C565.59591,289.663675 565.178189,289.781494 564.257059,289.952867 C562.843232,290.220637 561.922103,290.541961 561.922103,291.784415 C561.922103,292.705545 562.618305,293.337482 563.721519,293.337482 Z M563.807205,292.587726 C563.100292,292.587726 562.778968,292.277112 562.778968,291.741572 C562.778968,291.088213 563.271665,290.820442 564.332035,290.595515 C564.910418,290.477697 565.435248,290.327745 565.59591,290.167083 L565.59591,291.077502 C565.59591,292.127161 564.824732,292.587726 563.807205,292.587726 Z M568.605647,293.187531 L568.605647,285.529303 L567.748782,285.529303 L567.748782,293.187531 L568.605647,293.187531 Z M570.351509,286.664649 C570.597857,286.664649 570.887049,286.482565 570.887049,286.15053 C570.887049,285.818495 570.597857,285.636411 570.351509,285.636411 C570.115871,285.636411 569.815968,285.818495 569.815968,286.15053 C569.815968,286.482565 570.115871,286.664649 570.351509,286.664649 Z M570.779941,293.187531 L570.779941,287.725019 L569.923076,287.725019 L569.923076,293.187531 L570.779941,293.187531 Z M576.253164,293.187531 L576.253164,292.437774 L572.954235,292.437774 L572.954235,292.416353 L576.135345,288.239138 L576.135345,287.725019 L572.022395,287.725019 L572.022395,288.474775 L574.925024,288.474775 L574.925024,288.496197 L571.840311,292.544883 L571.840311,293.187531 L576.253164,293.187531 Z M578.577409,293.337482 C579.477117,293.337482 580.087633,293.016158 580.430379,292.502039 L580.451801,292.502039 C580.601752,293.101845 580.912365,293.241085 581.426484,293.241085 C581.587146,293.241085 581.704965,293.230374 581.929892,293.155399 L581.929892,292.555593 C581.383641,292.619858 581.308665,292.38422 581.308665,291.955788 L581.308665,289.299508 C581.308665,287.982078 580.376825,287.575068 579.337877,287.575068 C577.752677,287.575068 577.099318,288.367667 577.045764,289.417327 L577.902628,289.417327 C577.956182,288.624727 578.298928,288.324824 579.337877,288.324824 C580.216163,288.324824 580.451801,288.688992 580.451801,289.117424 C580.451801,289.663675 580.034079,289.781494 579.11295,289.952867 C577.699123,290.220637 576.777994,290.541961 576.777994,291.784415 C576.777994,292.705545 577.474196,293.337482 578.577409,293.337482 Z M578.663096,292.587726 C577.956182,292.587726 577.634858,292.277112 577.634858,291.741572 C577.634858,291.088213 578.127555,290.820442 579.187925,290.595515 C579.766309,290.477697 580.291139,290.327745 580.451801,290.167083 L580.451801,291.077502 C580.451801,292.127161 579.680623,292.587726 578.663096,292.587726 Z M584.307692,293.251796 C584.532619,293.251796 584.757546,293.230374 584.95034,293.187531 L584.95034,292.437774 C584.222005,292.491328 583.879259,292.38422 583.879259,291.762994 L583.879259,288.474775 L584.95034,288.474775 L584.95034,287.725019 L583.879259,287.725019 L583.879259,285.904182 L583.022395,285.904182 L583.022395,287.725019 L582.219084,287.725019 L582.219084,288.474775 L583.022395,288.474775 L583.022395,291.84868 C583.022395,292.962604 583.579357,293.251796 584.307692,293.251796 Z M586.385588,286.664649 C586.631937,286.664649 586.921129,286.482565 586.921129,286.15053 C586.921129,285.818495 586.631937,285.636411 586.385588,285.636411 C586.149951,285.636411 585.850048,285.818495 585.850048,286.15053 C585.850048,286.482565 586.149951,286.664649 586.385588,286.664649 Z M586.814021,293.187531 L586.814021,287.725019 L585.957156,287.725019 L585.957156,293.187531 L586.814021,293.187531 Z M590.466406,293.337482 C592.126581,293.337482 593.133397,292.159293 593.133397,290.456275 C593.133397,288.753256 592.126581,287.575068 590.466406,287.575068 C588.79552,287.575068 587.788704,288.753256 587.788704,290.456275 C587.788704,292.159293 588.79552,293.337482 590.466406,293.337482 Z M590.466406,292.587726 C589.234663,292.587726 588.645569,291.623753 588.645569,290.456275 C588.645569,289.288797 589.234663,288.324824 590.466406,288.324824 C591.687438,288.324824 592.276533,289.288797 592.276533,290.456275 C592.276533,291.623753 591.687438,292.587726 590.466406,292.587726 Z M594.857837,293.187531 L594.857837,289.781494 C594.857837,288.93534 595.500486,288.324824 596.464459,288.324824 C597.321323,288.324824 597.653358,288.881786 597.653358,289.5887 L597.653358,293.187531 L598.510223,293.187531 L598.510223,289.374483 C598.510223,288.121319 597.67478,287.575068 596.678675,287.575068 C595.746835,287.575068 595.168451,287.992789 594.879259,288.378378 L594.857837,288.378378 L594.857837,287.725019 L594.000973,287.725019 L594.000973,293.187531 L594.857837,293.187531 Z" id="SecurityScansDebuggingVisualization" fill="#4A4A4A" fill-rule="nonzero"></path>
        </g>
    </g>
</svg>